<svg width="617" height="625" viewBox="0 0 617 625" fill="none" xmlns="http://www.w3.org/2000/svg">
<path fill-rule="evenodd" clip-rule="evenodd" d="M311.501 271.928C304.183 276.426 297.871 279.904 297.473 279.654C297.045 279.385 296.946 279.521 297.231 279.987C297.665 280.702 296.829 281.091 295.399 280.839C295.095 280.785 295.021 281.029 295.235 281.381C295.449 281.732 294.742 282.417 293.663 282.902C292.336 283.499 289.473 287.023 284.794 293.816C280.995 299.335 277.6 303.671 277.253 303.453C276.905 303.234 276.811 303.37 277.044 303.753C277.278 304.137 275.039 307.941 272.07 312.208C269.1 316.474 265.281 322.046 263.583 324.589C261.395 327.864 260.328 328.957 259.924 328.338C259.488 327.669 259.051 327.827 258.074 329.009C256.818 330.528 256.787 330.531 256.365 329.18C255.888 327.654 255.482 327.526 254.044 328.45C252.745 329.285 251.269 327.157 251.777 325.183C252.18 323.617 252.997 323.278 253.676 324.395C254.221 325.289 256.025 325.276 256.025 324.378C256.025 323.994 255.3 323.399 254.412 323.057C253.526 322.714 252.615 322.131 252.39 321.76C251.911 320.973 254.459 319.961 256.248 320.227C257.405 320.4 259.312 318.627 259.359 317.335C259.371 317.013 258.586 316.952 257.615 317.2C256.086 317.59 255.897 317.468 256.202 316.283C256.679 314.429 255.288 312.615 253.827 313.185C253.19 313.433 252.67 314.198 252.67 314.886C252.67 316.539 251.426 317.271 250.916 315.918C250.438 314.656 248.536 314.473 248.694 315.705C249.029 318.327 248.657 318.998 247.283 318.251C246.502 317.827 246.119 317.162 246.383 316.693C246.638 316.243 246.621 316.08 246.346 316.33C245.741 316.881 243.275 314.497 243.275 313.36C243.275 312.913 243.701 313.139 244.221 313.862C245.149 315.151 245.193 315.152 246.57 313.887C247.341 313.177 247.972 312.2 247.972 311.714C247.972 311.228 248.452 310.558 249.039 310.225C249.958 309.703 249.825 309.306 248.081 307.367C246.24 305.319 245.961 305.212 245.001 306.187C244.421 306.776 243.946 307.577 243.946 307.967C243.946 308.357 243.517 308.509 242.993 308.305C242.293 308.032 242.091 308.411 242.235 309.737C242.373 311.019 242.222 311.329 241.712 310.811C240.603 309.685 239.92 309.942 239.92 311.485C239.92 312.257 239.618 312.699 239.249 312.468C238.88 312.236 238.578 312.418 238.578 312.874C238.578 313.413 238.15 313.309 237.35 312.573C235.711 311.066 235.223 311.151 235.223 312.945C235.223 314.02 235.017 314.236 234.496 313.707C233.179 312.369 235.09 310.298 237.334 310.633C239.147 310.903 239.271 310.779 239.126 308.839C238.955 306.56 240.942 303.691 242.191 304.414C242.603 304.653 242.713 304.594 242.435 304.283C242.157 303.972 242.432 303.155 243.046 302.466C244.691 300.619 243.533 300.056 241.695 301.81C240.3 303.142 240.025 303.193 239.268 302.267C238.56 301.401 238.6 301.222 239.502 301.222C240.749 301.222 240.945 299.809 239.852 298.699C239.315 298.153 239.347 297.293 239.971 295.541C240.686 293.532 240.671 292.94 239.879 291.971C239.357 291.331 239.023 290.083 239.137 289.197C239.376 287.348 237.707 286.344 236.326 287.508C235.131 288.515 234.443 287.706 235.229 286.216C235.703 285.315 235.365 284.328 233.859 282.215C231.947 279.535 230.279 278.461 230.826 280.263C231.914 283.849 231.832 284.714 230.373 285.102C228.994 285.469 229.119 285.717 232.181 288.697C235.344 291.775 235.412 291.919 233.958 292.466C232.794 292.903 232.55 293.369 232.899 294.487C233.213 295.494 233.116 295.791 232.581 295.455C231.789 294.958 229.854 296.177 229.854 297.172C229.854 297.478 230.987 298.87 232.371 300.267C233.755 301.663 234.374 302.425 233.748 301.96C233.002 301.406 232.228 301.33 231.507 301.74C230.5 302.312 230.498 302.459 231.472 303.449C232.917 304.917 232.813 305.492 231.196 304.97C229.512 304.427 229.463 305.421 231.1 306.926C232.32 308.048 232.375 311.445 231.173 311.445C230.877 311.445 230.196 311.616 229.66 311.825C229.122 312.035 228.504 311.725 228.281 311.135C227.958 310.282 228.213 310.151 229.537 310.488C230.745 310.796 231.196 310.635 231.196 309.899C231.196 308.686 229.578 307.182 228.954 307.816C228.711 308.063 228.512 307.859 228.512 307.364C228.512 306.7 228.189 306.759 227.285 307.591C225.915 308.85 224.486 309.078 224.486 308.037C224.486 307.662 224.821 307.356 225.229 307.356C225.681 307.356 225.813 306.708 225.566 305.708C225.313 304.684 225.476 303.943 225.997 303.749C226.644 303.508 226.653 303.241 226.039 302.577C225.423 301.912 225.468 301.49 226.24 300.706C227.517 299.409 227.132 297.444 225.625 297.569C224.582 297.656 224.606 297.436 225.865 295.367C227.981 291.89 226.371 290.412 223.302 293.012C222.026 294.092 221.898 294.556 222.499 295.897C222.984 296.978 223.001 298.044 222.552 299.189C222.186 300.119 221.867 300.498 221.844 300.029C221.821 299.561 221.361 299.177 220.822 299.177C220.156 299.177 219.888 299.81 219.983 301.156C220.061 302.243 220.306 303.02 220.53 302.88C220.753 302.741 220.904 303.536 220.865 304.649C220.827 305.761 220.493 306.682 220.124 306.694C219.755 306.707 220.284 307.459 221.298 308.367C222.314 309.274 223.144 310.115 223.144 310.236C223.144 310.357 221.785 310.448 220.124 310.439C217.161 310.423 217.104 310.464 217.104 312.638C217.104 313.857 217.406 314.853 217.775 314.853C218.144 314.853 218.397 315.083 218.338 315.364C218.14 316.3 219.745 319.624 220.396 319.624C220.749 319.624 221.167 319.087 221.327 318.431C221.486 317.776 221.549 317.928 221.467 318.772C221.384 319.616 221.634 320.306 222.023 320.306C222.412 320.306 222.177 320.715 221.504 321.215C219.941 322.376 217.236 321.864 216.223 320.216C215.28 318.683 213.187 318.541 212.646 319.974C212.432 320.541 212.63 321.461 213.085 322.018C213.756 322.839 213.722 323.032 212.907 323.032C212.353 323.032 211.535 323.48 211.087 324.027C210.418 324.845 210.664 325.263 212.467 326.377C214.843 327.845 215.94 327.703 215.3 326.009C215.078 325.421 215.681 325.738 216.641 326.712C217.6 327.687 218.701 328.484 219.087 328.484C219.473 328.484 219.788 328.791 219.788 329.166C219.788 329.541 219.335 329.848 218.782 329.848C217.344 329.848 217.538 331.034 219.117 331.892C219.856 332.294 220.459 332.447 220.459 332.233C220.459 332.019 221.045 332.163 221.761 332.552C222.616 333.017 223.203 333.027 223.474 332.583C223.715 332.187 224.481 332.47 225.323 333.266C226.392 334.277 226.565 334.824 226.002 335.396C225.438 335.969 224.954 335.873 224.115 335.021C222.705 333.589 221.531 333.934 221.251 335.864C220.986 337.7 219.117 337.838 219.117 336.022C219.117 334.337 218.142 333.727 216.366 334.3C215.386 334.615 215.071 335.149 215.313 336.087C215.592 337.173 215.48 337.274 214.711 336.626C214.191 336.187 213.309 336.007 212.751 336.225C211.53 336.701 211.388 338.704 212.575 338.718C213.16 338.726 213.123 338.915 212.454 339.345C211.926 339.685 211.418 340.493 211.325 341.141C211.126 342.514 209.493 343.749 209.164 342.775C209.04 342.413 208.577 342.116 208.132 342.116C206.892 342.116 206.981 344.717 208.255 345.685C208.878 346.159 209.387 346.981 209.387 347.512C209.387 348.043 210.053 348.527 210.866 348.589C211.68 348.649 212.203 348.466 212.029 348.181C211.856 347.895 212 347.483 212.35 347.264C212.7 347.044 213.183 347.189 213.424 347.585C213.664 347.981 214.398 348.133 215.053 347.921C216.504 347.454 218.573 348.171 218.085 348.973C217.891 349.292 217.278 349.376 216.722 349.16C216.167 348.943 215.068 349.34 214.28 350.042C213.492 350.743 213.068 350.934 213.338 350.465C213.677 349.875 213.299 349.613 212.111 349.613C209.821 349.613 209.937 350.645 212.363 351.874C214.037 352.722 214.527 352.732 215.643 351.938C216.8 351.115 216.995 351.159 217.293 352.317C217.501 353.123 218.158 353.589 218.999 353.524C219.751 353.467 220.217 353.174 220.035 352.874C219.461 351.931 221.827 351.444 223.356 352.192C227.139 354.039 229.496 353.465 227.776 351.117C227.308 350.477 227.685 350.721 228.615 351.658L230.305 353.362L227.899 354.873C225.518 356.369 225.483 356.37 224.572 355.043C222.751 352.391 220.395 353.689 221.538 356.714C222.131 358.285 223.363 358.036 222.949 356.429C222.452 354.5 222.885 354.738 223.999 357.007L224.953 358.948L222.706 358.768C220.92 358.623 220.459 358.839 220.459 359.82C220.459 361.294 222.222 362.166 222.691 360.924C222.897 360.377 223.789 360.168 225.094 360.363C226.963 360.642 227.17 360.495 227.17 358.891C227.17 357.912 227.472 357.11 227.841 357.11C228.21 357.11 228.512 357.75 228.512 358.53C228.512 359.378 228.85 359.824 229.351 359.637C229.813 359.466 230.102 358.943 229.994 358.475C229.878 357.968 230.204 357.782 230.804 358.016C231.612 358.332 231.693 358.096 231.215 356.819C230.804 355.722 230.909 354.812 231.556 353.875C232.07 353.128 232.275 352.258 232.012 351.94C231.748 351.622 232.02 351.739 232.616 352.2C233.819 353.128 234.328 357.285 234.997 371.642L235.404 380.38L232.797 379.896C231.363 379.629 229.49 379.147 228.636 378.825C226.594 378.054 226.499 378.071 226.499 379.215C226.499 380.292 227.377 380.638 231.867 381.333C237.509 382.206 237.069 382.976 231.028 382.802C227.799 382.709 225.157 382.89 225.157 383.205C225.157 383.521 224.326 383.712 223.311 383.632C220.422 383.403 219.117 383.633 219.117 384.373C219.117 384.783 221.86 385.056 225.996 385.059C229.778 385.061 234.082 385.443 235.558 385.908L238.242 386.755L234.662 386.965C232.146 387.112 231.176 387.426 231.401 388.021C231.649 388.676 230.637 388.75 226.938 388.349C221.88 387.8 219.129 388.701 223.386 389.512C224.723 389.767 225.65 390.248 225.447 390.582C225.244 390.915 225.415 391.189 225.828 391.189C226.241 391.189 226.404 391.474 226.192 391.823C225.98 392.172 226.159 392.679 226.592 392.95C227.111 393.276 227.197 393.147 226.844 392.569C226.552 392.087 226.581 391.826 226.909 391.988C230.949 393.984 232.797 394.598 233.139 394.059C233.362 393.708 238.97 393.203 245.6 392.936C252.23 392.67 257.905 392.294 258.211 392.102C258.517 391.91 259.132 392.043 259.577 392.398C260.096 392.813 261.082 392.747 262.324 392.214C264.279 391.377 263.771 390.146 261.789 390.919C261.19 391.152 260.722 390.986 260.722 390.54C260.722 390.103 260.42 389.935 260.051 390.166C259.682 390.398 259.38 390.109 259.38 389.525C259.38 388.098 258.556 388.187 256.707 389.815C255.777 390.635 254.613 391.029 253.753 390.815C252.972 390.621 251.369 390.396 250.189 390.314C248.724 390.213 247.899 389.734 247.587 388.803C247.156 387.514 247.115 387.525 246.83 389.01C246.553 390.446 246.223 390.562 242.948 390.38C240.979 390.271 239.51 389.947 239.684 389.663C239.857 389.377 239.694 389.144 239.322 389.144C238.949 389.144 238.32 389.681 237.923 390.337C237.264 391.426 237.218 391.412 237.387 390.166C237.645 388.259 238.954 387.027 240.206 387.515C241.948 388.194 241.395 386.45 239.605 385.622C236.859 384.35 238.364 383.692 243.817 383.78C246.656 383.826 250.003 383.837 251.255 383.805C252.507 383.773 254.12 384.067 254.838 384.457C255.932 385.052 256.105 384.964 255.901 383.918C255.742 383.108 255.173 382.736 254.282 382.862C253.527 382.968 252.065 382.61 251.034 382.067C249.17 381.085 249.169 381.079 250.748 380.852C251.62 380.727 252.334 380.318 252.334 379.943C252.334 379.554 249.314 379.115 245.288 378.92L238.242 378.58L237.805 374.831C237.565 372.769 237.338 367.806 237.302 363.801C237.238 356.819 237.297 356.501 238.746 356.042C239.576 355.778 240.477 355.222 240.749 354.803C241.057 354.329 241.245 354.491 241.252 355.236C241.266 356.923 242.654 356.72 243.107 354.965C243.468 353.563 243.521 353.554 244.388 354.757C245.469 356.259 246.894 355.259 246.518 353.263C246.348 352.366 245.635 351.966 244.067 351.886C241.073 351.733 239.74 351.142 240.303 350.216C240.611 349.71 241.989 349.592 244.331 349.872C246.454 350.126 248.06 350.021 248.307 349.614C248.535 349.239 248.342 348.931 247.878 348.931C247.221 348.931 247.212 348.749 247.838 348.114C248.464 347.478 248.823 347.478 249.449 348.114C251.069 349.76 253.221 349.053 254.422 346.483C255.355 344.485 255.677 344.233 256.165 345.119C256.889 346.433 258.709 346.563 258.709 345.301C258.709 344.684 259.349 344.492 260.722 344.697C262.521 344.965 262.735 344.807 262.735 343.215C262.735 342.086 262.367 341.434 261.729 341.434C261.116 341.434 260.722 340.8 260.722 339.81C260.722 337.762 257.692 336.814 257.544 338.815C257.493 339.491 257.74 340.225 258.092 340.445C259.063 341.056 258.133 342.11 257.01 341.672C256.444 341.452 256.02 341.682 256.015 342.213C256.006 342.972 255.898 342.968 255.412 342.187C255.085 341.664 254.335 341.424 253.744 341.654C252.46 342.155 252.348 341.397 253.509 340.055C253.97 339.522 253.743 339.589 253.005 340.205C251.753 341.249 251.557 341.237 250.082 340.019L248.501 338.713L250.585 339.137C252.219 339.469 252.67 339.325 252.67 338.473C252.67 337.876 253.048 337.535 253.51 337.715C254.892 338.253 256.104 335.6 255.371 333.642C254.961 332.546 254.969 331.793 255.396 331.525C255.761 331.297 256.01 331.362 255.952 331.671C255.749 332.741 256.866 336.663 257.374 336.663C258.022 336.663 260.051 333.548 260.051 332.552C260.051 332.099 259.451 331.972 258.541 332.232C257.36 332.57 257.25 332.508 258.038 331.947C258.592 331.553 261.083 331.227 263.574 331.221L268.104 331.211V352.68V374.149L266.594 374.233C261.594 374.507 261.058 374.409 261.255 373.257C261.473 371.982 259.532 371.962 257.936 373.223C256.296 374.519 254.527 374.866 253.591 374.078C252.917 373.509 252.67 373.506 252.67 374.066C252.67 375.154 251.602 375.012 250.369 373.76C249.41 372.786 249.314 372.811 249.314 374.028C249.314 375.636 250.178 376.001 253.509 375.802C254.893 375.72 256.025 375.869 256.025 376.134C256.025 376.878 266.295 376.189 267.254 375.38C267.915 374.823 268.103 375.251 268.1 377.304C268.096 379.535 267.777 380.127 266.032 381.135C264.898 381.791 263.389 382.328 262.681 382.328C261.973 382.328 261.393 382.608 261.393 382.949C261.393 384.495 274.753 384.026 276.329 382.425C276.921 381.825 276.347 381.739 273.949 382.073L270.788 382.514V376.968V371.423H288.906H307.024V377.557C307.024 380.931 307.3 383.691 307.636 383.691C308.212 383.691 309.489 380.572 314.127 367.845C315.186 364.94 316.21 362.564 316.403 362.565C316.596 362.567 318.452 367.167 320.526 372.789C324.227 382.818 324.269 383.01 322.746 383.01C321.894 383.01 321.003 383.327 320.768 383.714C320.497 384.158 319.493 383.886 318.044 382.976C316.045 381.722 315.748 381.68 315.748 382.653C315.748 383.269 315.446 383.582 315.077 383.351C314.708 383.119 314.406 383.225 314.406 383.587C314.406 383.949 313.727 384.079 312.896 383.875C311.731 383.59 311.56 383.695 312.147 384.337C312.97 385.237 323.13 385.872 323.13 385.022C323.13 384.744 323.809 384.508 324.639 384.497C325.47 384.486 327.56 384.263 329.284 384.001C331.64 383.644 332.327 383.28 332.046 382.535C331.801 381.887 331.137 381.681 330.126 381.939C329.276 382.156 328.398 382.034 328.175 381.668C327.874 381.172 334.058 362.84 334.779 362.093C334.847 362.022 336.699 366.853 338.893 372.828C341.196 379.096 343.248 383.691 343.743 383.691C344.38 383.691 344.603 382.07 344.603 377.452V371.213L359.869 371.748C368.266 372.043 376.257 372.306 377.627 372.333L380.119 372.381L380.311 377.858C380.473 382.44 380.696 383.373 381.678 383.563C382.772 383.776 382.853 382.597 382.853 366.434C382.853 352.975 383.045 349.002 383.71 348.743C384.61 348.392 384.834 351.235 383.976 352.107C383.126 352.97 383.522 357.692 384.53 358.717C385.084 359.279 385.537 360.068 385.537 360.47C385.537 360.871 385.874 361.2 386.286 361.2C386.698 361.2 386.884 360.609 386.698 359.888C386.456 358.946 386.634 358.682 387.329 358.953C387.862 359.161 388.139 359.751 387.945 360.265C387.751 360.779 387.885 361.2 388.242 361.2C389.099 361.2 389.068 363.154 388.11 369.549C387.58 373.079 387.023 374.831 386.427 374.831C385.217 374.831 385.298 375.956 386.543 376.441C387.097 376.656 387.55 377.644 387.55 378.635C387.55 380.26 387.346 380.408 385.492 380.132C383.567 379.845 383.461 379.939 383.856 381.587C384.897 385.927 384.987 386.777 384.301 385.782C383.931 385.245 382.321 384.445 380.724 384.006C379.127 383.566 377.291 382.976 376.646 382.694C375.687 382.276 375.471 382.533 375.471 384.096C375.471 385.54 375.66 385.816 376.245 385.223C376.792 384.667 377.397 384.642 378.31 385.139C379.021 385.525 380.048 385.667 380.592 385.455C381.135 385.243 382.247 385.513 383.062 386.056C385.192 387.473 386.333 386.509 385.599 383.911L385.007 381.816L395.841 380.994C409.115 379.988 408.432 380.082 408.385 379.286C408.328 378.336 391.484 378.846 390.276 379.834C389.489 380.48 389.397 380.395 389.773 379.376C390.027 378.689 390.234 377.711 390.234 377.202C390.234 376.63 390.937 376.306 392.08 376.351C395.947 376.506 398.287 376.167 398.287 375.453C398.287 374.965 397.367 374.869 395.603 375.172C393.706 375.498 392.918 375.392 392.918 374.811C392.918 374.31 392.363 374.138 391.489 374.37C390.105 374.738 390.074 374.604 390.499 370.189C391.478 360.012 391.538 359.81 393.716 359.368C395.251 359.056 395.634 358.669 395.381 357.687C395.044 356.378 396.947 354.819 398.958 354.756C399.528 354.738 399.973 354.081 399.985 353.24C400.01 351.458 402.216 348.79 403.169 349.389C403.542 349.623 403.06 350.233 402.098 350.744C400.99 351.334 400.489 352.047 400.731 352.689C401.276 354.13 403.155 353.943 404.53 352.31C405.176 351.545 405.994 351.1 406.349 351.323C406.71 351.549 406.818 351.261 406.596 350.671C406.376 350.089 405.758 349.613 405.221 349.613C404.685 349.613 404.443 349.291 404.682 348.898C404.978 348.411 405.423 348.442 406.08 348.995C406.61 349.442 407.224 349.623 407.445 349.399C408.067 348.767 407.101 346.749 406.39 347.195C406.044 347.413 405.559 347.258 405.311 346.851C405.064 346.445 404.47 346.264 403.993 346.45C403.396 346.684 403.165 346.204 403.252 344.918C403.348 343.503 403.089 343.067 402.189 343.135C401.534 343.184 400.766 343.484 400.481 343.801C400.197 344.119 400.374 344.138 400.875 343.844C401.581 343.428 401.677 343.673 401.303 344.927C401.037 345.817 400.552 346.838 400.225 347.193C399.25 348.253 399.547 349.109 400.73 348.648C401.651 348.289 401.693 348.389 400.984 349.257C399.765 350.748 399.352 350.564 398.448 348.132C397.91 346.683 397.865 345.699 398.313 345.151C399.374 343.853 398.388 342.23 396.733 342.551C395.349 342.82 395.354 342.797 396.823 342.14C397.936 341.641 398.265 341.076 397.978 340.156C397.605 338.963 399.077 337.624 400.444 337.91C401.681 338.169 404.326 336.577 404.326 335.574C404.326 334.738 404.546 334.637 405.188 335.177C405.693 335.604 406.432 335.663 406.977 335.321C407.497 334.995 408.612 335.012 409.515 335.36C411.687 336.199 411.646 336.224 411.49 334.16C411.345 332.251 409.695 331.016 409.695 332.818C409.695 334.33 408.414 334.893 407.924 333.596C407.659 332.895 408.031 332.113 408.936 331.47C409.722 330.909 410.366 330.009 410.366 329.468C410.366 328.258 409.57 328.204 408.447 329.336C407.769 330.019 407.69 329.953 408.047 329.001C408.706 327.242 406.395 326.553 405.235 328.163C404.368 329.368 404.326 329.357 404.326 327.933C404.326 325.944 403.42 326.042 402.309 328.15L401.408 329.862L399.847 328.373L398.287 326.883V328.326C398.287 329.118 397.988 329.955 397.623 330.184C397.243 330.422 397.131 330.149 397.359 329.542C397.954 327.969 395.868 328.214 394.194 329.915L392.786 331.345L393.276 329.776C393.546 328.913 394.179 327.788 394.685 327.275C395.189 326.762 395.603 325.512 395.603 324.498C395.603 323.483 396.207 322.128 396.945 321.486C397.712 320.819 398.287 320.649 398.287 321.089C398.287 321.513 397.797 322.223 397.198 322.668C395.943 323.6 396.482 326.44 397.914 326.44C399.249 326.44 400.458 324.613 400.035 323.235C399.57 321.721 400.585 319.802 401.262 320.914C401.973 322.082 403.655 321.804 403.655 320.52C403.655 319.888 402.999 318.661 402.196 317.793C400.957 316.454 400.907 316.216 401.861 316.216C402.479 316.216 402.984 315.76 402.984 315.202C402.984 314.469 402.379 314.246 400.803 314.397C399.603 314.512 398.663 314.892 398.712 315.241C398.761 315.59 398.221 316.479 397.511 317.215C396.235 318.54 396.232 318.528 397.208 316.158C398.122 313.936 398.101 313.7 396.925 312.954C395.887 312.296 395.533 312.364 394.979 313.331C394.338 314.449 394.3 314.448 394.281 313.32C394.257 311.935 393.523 311.785 392.393 312.933C391.782 313.553 391.743 313.278 392.221 311.74C393.66 307.114 394.721 304.643 395.103 305.031C395.327 305.258 395.331 305.916 395.114 306.493C394.854 307.181 395.032 307.436 395.633 307.232C396.136 307.061 396.802 305.925 397.113 304.707C397.629 302.683 397.851 302.529 399.66 302.932C400.868 303.202 401.642 303.097 401.642 302.663C401.642 301.769 399.123 300.356 398.371 300.828C398.063 301.021 397.11 300.422 396.254 299.497C395.398 298.571 395.052 297.814 395.486 297.814C395.919 297.814 396.274 297.168 396.274 296.378C396.274 295.438 395.954 295.066 395.349 295.302C394.84 295.501 394.097 295.33 393.696 294.923C393.173 294.392 392.792 294.655 392.342 295.856C391.539 298.002 389.574 299.792 389.541 298.408C389.527 297.817 389.055 298.037 388.259 299.007C386.933 300.621 385.537 301.038 385.537 299.818C385.537 299.422 385.836 299.284 386.201 299.513C386.567 299.743 386.7 299.498 386.499 298.964C386.25 298.305 386.783 297.868 388.184 297.583C389.807 297.253 390.234 296.815 390.234 295.479C390.234 294.551 390.76 293.493 391.403 293.128C392.046 292.763 392.334 292.222 392.043 291.927C391.753 291.632 390.896 291.783 390.138 292.264C389.381 292.744 388.589 292.962 388.379 292.749C388.169 292.536 388.355 292.361 388.793 292.361C389.306 292.361 389.44 291.757 389.169 290.662C388.831 289.296 389.059 288.846 390.33 288.367C392.863 287.41 393.763 288.139 393.281 290.753C392.955 292.513 393.087 293.043 393.849 293.043C394.93 293.043 395.929 290.723 395.296 289.682C395.079 289.326 395.815 287.98 396.93 286.689C399.027 284.264 399.584 282.134 398.119 282.143C397.658 282.146 396.931 282.913 396.504 283.847C395.947 285.067 395.938 285.546 396.471 285.546C396.998 285.546 396.99 285.772 396.445 286.325C395.868 286.911 395.172 286.893 393.649 286.252C390.867 285.081 389.658 283.578 391.839 284.002C393.256 284.277 393.444 284.075 393.363 282.375C393.312 281.307 392.973 280.221 392.611 279.96C392.189 279.657 392.28 278.562 392.863 276.924C393.432 275.328 393.524 274.278 393.109 274.137C392.743 274.013 392.578 273.192 392.744 272.311C393.144 270.184 391.841 269.457 390.766 271.206C389.559 273.169 388.768 272.937 389.687 270.889C390.107 269.95 390.26 268.986 390.024 268.747C389.34 268.053 387.55 269.913 387.55 271.316C387.55 272.02 387.097 272.596 386.543 272.596C385.36 272.596 385.193 274.344 386.31 275.045C386.735 275.312 387.414 275.089 387.82 274.549C389.308 272.568 391.908 274.682 391.076 277.196C390.68 278.388 389.563 278.262 389.563 277.026C389.563 275.837 387.784 275.633 387.408 276.778C387.226 277.331 386.74 277.29 385.705 276.633C383.643 275.326 382.874 276.543 384.774 278.108C386.319 279.38 386.331 279.476 385.259 281.769C384.654 283.065 383.865 284.309 383.506 284.535C383.147 284.76 382.853 285.576 382.853 286.347C382.853 287.413 383.174 287.664 384.194 287.393C385.535 287.037 385.535 287.038 384.194 288.769C382.766 290.612 382.429 292.361 383.503 292.361C383.86 292.361 383.969 292.847 383.745 293.441C383.416 294.311 383.225 294.344 382.759 293.611C382.286 292.866 382.052 292.887 381.466 293.724C380.903 294.531 380.842 294.423 381.176 293.213C381.811 290.92 379.781 291.235 378.985 293.554C378.482 295.023 377.923 295.424 376.403 295.411C374.162 295.39 372.451 294.439 372.451 293.213C372.451 292.745 372.15 292.356 371.78 292.349C371.411 292.343 371.017 293.57 370.903 295.075C370.697 297.818 371.601 298.798 372.396 296.694C372.628 296.078 372.987 295.745 373.193 295.954C373.398 296.163 373.257 296.922 372.879 297.64C372.384 298.579 372.445 299.443 373.096 300.717C373.593 301.691 373.803 302.712 373.561 302.986C373.32 303.26 373.651 303.291 374.297 303.056C375.073 302.772 375.471 302.966 375.471 303.628C375.471 304.179 375.773 304.63 376.142 304.63C377.286 304.63 376.88 302.827 375.591 302.178C374.518 301.637 374.476 301.354 375.246 299.859C375.728 298.921 376.127 298.585 376.132 299.112C376.14 299.861 376.421 299.814 377.418 298.898C378.376 298.016 378.819 297.932 379.199 298.556C379.514 299.073 379.425 299.212 378.964 298.923C378.029 298.335 376.58 300.985 377.094 302.344C377.344 303.006 377.947 303.209 378.823 302.927C379.779 302.618 380.169 302.802 380.169 303.562C380.169 304.961 380.613 304.909 382.669 303.266C384.542 301.77 385.537 301.534 385.537 302.585C385.537 302.96 385.156 303.266 384.692 303.266C383.534 303.266 382.119 305.715 382.577 306.926C382.956 307.931 380.453 309.235 379.671 308.44C379.452 308.219 379.626 308.037 380.056 308.037C380.487 308.037 380.84 307.71 380.84 307.31C380.84 306.903 380.273 306.765 379.553 306.997C378.511 307.333 378.335 307.148 378.625 306.021C378.828 305.233 378.657 304.63 378.234 304.63C377.821 304.63 377.484 304.947 377.484 305.335C377.484 305.779 376.923 305.725 375.974 305.19C375.144 304.723 374.281 304.39 374.057 304.452C373.834 304.514 373.23 303.735 372.715 302.722C372.201 301.71 371.446 300.574 371.037 300.199C369.057 298.384 362.07 287.429 362.471 286.769C362.739 286.327 362.623 286.209 362.188 286.481C361.78 286.738 361.136 286.358 360.757 285.638C360.378 284.919 357.645 282.888 354.684 281.124C351.576 279.274 349.486 277.614 349.739 277.196C349.995 276.777 349.86 276.675 349.417 276.952C348.998 277.216 343.794 274.467 337.85 270.845C331.908 267.223 326.541 264.145 325.926 264.004C325.31 263.864 318.819 267.429 311.501 271.928ZM316.967 271.035C312.285 273.919 308.591 276.503 308.757 276.776C308.924 277.049 308.706 277.494 308.274 277.766C307.783 278.074 307.668 277.964 307.967 277.472C308.783 276.132 307.976 276.539 300.295 281.349C292.949 285.948 292.768 286.124 287.2 294.047C284.094 298.465 281.746 302.424 281.982 302.844C282.218 303.264 282.166 303.382 281.868 303.108C281.15 302.448 272.086 315.575 272.611 316.513C272.834 316.912 272.77 317.012 272.47 316.736C271.715 316.042 265.929 324.259 266.505 325.206C266.77 325.642 266.668 325.78 266.268 325.528C265.667 325.152 263.406 327.737 263.406 328.801C263.406 329.002 264.406 329.166 265.629 329.166C267.324 329.166 268.207 328.677 269.351 327.107C270.175 325.974 270.638 324.7 270.379 324.275C270.114 323.837 270.207 323.69 270.595 323.933C271.31 324.382 285.068 304.928 285.091 303.437C285.098 302.969 285.246 302.729 285.419 302.906C286.015 303.511 290.997 295.767 290.519 294.981C290.233 294.511 290.336 294.38 290.774 294.655C291.191 294.917 292.372 293.838 293.517 292.149C295.129 289.769 297.719 287.851 306.602 282.459C312.694 278.762 317.499 275.443 317.281 275.084C317.062 274.724 317.215 274.638 317.62 274.893C318.026 275.148 319.842 274.428 321.657 273.294C323.471 272.16 325.271 271.233 325.657 271.233C326.042 271.233 328.57 272.618 331.275 274.312C333.979 276.005 336.59 277.236 337.077 277.046C337.564 276.856 337.795 276.976 337.59 277.313C337.385 277.649 341.371 280.432 346.448 283.496C355.383 288.889 355.796 289.24 359.304 294.439C361.298 297.392 363.231 299.619 363.6 299.388C363.969 299.156 364.07 299.296 363.825 299.7C363.579 300.104 366.303 304.675 369.877 309.859C373.451 315.042 377.884 321.506 379.726 324.225C382.917 328.93 383.202 329.166 385.691 329.166H388.304L386.151 326.121C384.967 324.445 383.694 323.266 383.322 323.499C382.944 323.737 382.851 323.585 383.112 323.157C383.728 322.145 381.567 318.827 380.662 319.394C380.263 319.645 380.16 319.507 380.424 319.075C380.966 318.183 376.992 312.38 376.028 312.655C375.667 312.758 375.559 312.534 375.789 312.156C376.37 311.201 370.718 303.23 369.824 303.746C369.424 303.977 369.312 303.923 369.576 303.627C370.195 302.93 368.872 300.389 368.132 300.854C367.823 301.049 367.612 300.674 367.662 300.021C367.713 299.37 367.427 298.896 367.027 298.968C366.627 299.041 366.3 298.729 366.3 298.274C366.3 296.824 362.586 291.684 361.864 292.137C361.484 292.376 361.364 292.256 361.599 291.87C361.834 291.484 361.167 289.964 360.118 288.493C357.916 285.407 340.461 274.211 339.142 275.039C338.674 275.334 338.535 275.238 338.8 274.804C339.373 273.862 334.811 270.981 333.775 271.631C333.313 271.921 333.166 271.831 333.421 271.414C333.662 271.017 332.053 269.613 329.786 268.241C327.548 266.888 325.663 265.782 325.598 265.786C325.532 265.788 321.648 268.151 316.967 271.035ZM318.432 277.468C314.926 279.696 312.129 281.8 312.217 282.145C312.305 282.489 312.003 282.635 311.546 282.469C311.089 282.303 308.601 283.568 306.018 285.278L301.321 288.389L309.038 287.898C313.282 287.628 317.51 287.464 318.432 287.534C319.355 287.604 326.904 287.808 335.208 287.988L350.307 288.313L344.718 284.878C341.644 282.988 338.805 281.646 338.407 281.895C338.01 282.145 337.86 282.061 338.074 281.71C338.458 281.078 326.541 273.213 325.4 273.347C325.074 273.385 321.938 275.24 318.432 277.468ZM373.776 276.838C373.374 277.891 374.716 280.093 375.759 280.093C376.475 280.093 376.146 278.314 375.183 276.986C374.299 275.764 374.19 275.753 373.776 276.838ZM322.123 280.775C322.654 281.648 332.536 281.648 333.866 280.775C334.554 280.323 332.789 280.111 328.291 280.103C324.071 280.097 321.857 280.338 322.123 280.775ZM387.327 280.604C387.037 281.073 387.007 281.797 387.261 282.214C387.514 282.631 387.306 283.239 386.797 283.566C386.097 284.017 386.081 284.164 386.732 284.172C387.773 284.185 388.422 282.666 388.094 280.985C387.92 280.09 387.71 279.986 387.327 280.604ZM376.032 281.233C374.895 281.539 373.823 283.418 374.432 284.037C374.617 284.223 375.18 284.029 375.685 283.604C376.189 283.179 376.8 283.033 377.043 283.279C377.286 283.526 377.484 283.063 377.484 282.252C377.484 281.439 377.408 280.81 377.317 280.854C377.225 280.897 376.646 281.068 376.032 281.233ZM378.155 282.098C378.155 282.825 377.853 283.61 377.484 283.842C377.115 284.073 376.813 285.011 376.813 285.927C376.813 286.842 377.115 287.59 377.484 287.59C377.853 287.59 378.155 286.999 378.155 286.276C378.155 285.553 378.608 284.502 379.16 283.941C379.713 283.38 379.982 282.438 379.759 281.847C379.192 280.346 378.155 280.507 378.155 282.098ZM314.629 285.034C314.627 285.683 316.688 285.837 323.24 285.678C328.052 285.562 331.853 285.186 331.853 284.826C331.853 284.456 328.197 284.182 323.242 284.182C316.8 284.182 314.629 284.397 314.629 285.034ZM380.56 285.302C379.998 286.789 380.744 287.481 381.537 286.207C382.331 284.933 382.347 284.182 381.582 284.182C381.253 284.182 380.793 284.686 380.56 285.302ZM399.217 286.525C398.688 287.924 399.433 289.839 400.295 289.297C400.667 289.064 400.971 288.296 400.971 287.59C400.971 285.911 399.733 285.159 399.217 286.525ZM385.294 289.976C385.082 290.538 385.201 290.998 385.558 290.998C385.915 290.998 386.208 290.538 386.208 289.976C386.208 289.414 386.089 288.953 385.944 288.953C385.799 288.953 385.507 289.414 385.294 289.976ZM297.9 290.156C296.31 291.237 290.234 300.647 290.667 301.359C290.921 301.776 290.824 301.924 290.45 301.689C289.878 301.33 287.19 304.56 285.23 307.962C284.768 308.765 286.78 308.838 298.371 308.439C305.898 308.18 313.19 307.991 314.574 308.02L317.09 308.07V303.262V298.455L325.645 298.645L334.199 298.836L334.297 301.562C334.351 303.062 334.427 305.285 334.466 306.504L334.537 308.719H350.307C358.98 308.719 366.077 308.552 366.077 308.348C366.077 307.647 355.154 292.02 353.831 290.828C352.616 289.734 350.281 289.636 325.572 289.645C310.758 289.651 298.305 289.881 297.9 290.156ZM376.55 291.395C375.868 293.198 376.091 294.406 377.104 294.406C377.633 294.406 378.256 293.795 378.489 293.049C379.215 290.726 377.39 289.17 376.55 291.395ZM327.491 292.361C326.618 292.742 328.494 292.96 332.86 292.984C337.425 293.01 339.248 292.81 338.564 292.361C337.333 291.554 329.343 291.554 327.491 292.361ZM398.728 293.178C398.516 294.002 398.659 295.062 399.044 295.533C399.429 296.005 399.521 296.759 399.248 297.208C398.933 297.725 399.035 297.846 399.525 297.538C400.035 297.218 400.3 297.656 400.3 298.817C400.3 301.066 401.978 301.741 403.68 300.176C405.197 298.782 405.433 297.498 404.074 298.028C403.316 298.323 401.966 296.562 401.296 294.406C400.377 291.445 399.307 290.933 398.728 293.178ZM386.208 293.684C386.208 294.037 386.507 294.513 386.872 294.742C387.251 294.981 387.364 294.707 387.135 294.101C386.689 292.92 386.208 292.704 386.208 293.684ZM219.594 296.194C218.958 296.84 220.399 298.495 221.598 298.495C222.889 298.495 222.433 296.186 221.09 295.924C220.523 295.813 219.85 295.935 219.594 296.194ZM233.209 298.444C233.209 298.767 233.662 299.208 234.216 299.424C234.77 299.639 235.223 299.551 235.223 299.229C235.223 298.906 234.77 298.465 234.216 298.249C233.662 298.033 233.209 298.121 233.209 298.444ZM380.878 298.788C380.244 299.566 380.345 299.906 381.379 300.469C382.957 301.326 383.49 300.898 383.037 299.137C382.632 297.565 381.966 297.457 380.878 298.788ZM337.893 299.177C337.893 299.58 340.34 299.859 343.892 299.859C347.193 299.859 350.079 299.552 350.307 299.177C350.573 298.741 348.413 298.495 344.307 298.495C340.478 298.495 337.893 298.77 337.893 299.177ZM392.004 299.518C391.488 300.887 392.226 302.705 393.169 302.386C393.585 302.246 394.031 301.575 394.161 300.895C394.329 300.013 394.099 299.775 393.356 300.065C392.638 300.345 392.431 300.165 392.689 299.483C392.894 298.94 392.911 298.495 392.726 298.495C392.542 298.495 392.217 298.955 392.004 299.518ZM403.91 300.848C403.705 301.393 403.732 302.16 403.971 302.552C404.211 302.947 403.874 303.266 403.216 303.266C402.173 303.266 402.147 303.387 403.008 304.244C404.46 305.688 407.954 306.457 407.517 305.237C407.33 304.715 406.816 304.373 406.374 304.476C405.931 304.579 405.768 304.336 406.011 303.937C406.253 303.538 407.031 303.397 407.738 303.626C409.587 304.221 409.32 302.921 407.255 301.271C405.166 299.602 404.417 299.508 403.91 300.848ZM301.992 301.903C302.22 302.278 305.089 302.585 308.367 302.585C311.645 302.585 314.513 302.278 314.742 301.903C315.007 301.466 312.722 301.222 308.367 301.222C304.011 301.222 301.726 301.466 301.992 301.903ZM322.181 302.919C322.783 303.854 323.553 304.444 323.891 304.232C324.229 304.02 324.45 304.099 324.382 304.409C324.314 304.717 324.496 305.523 324.786 306.198C325.276 307.34 325.41 307.316 326.682 305.858C327.434 304.995 328.657 303.599 329.398 302.755L330.745 301.222H325.915H321.086L322.181 302.919ZM388.949 304.492C388.474 305.654 388.244 307.004 388.436 307.491C388.662 308.063 388.805 307.954 388.839 307.185C388.868 306.53 389.345 305.993 389.899 305.993C390.999 305.993 391.064 305.627 390.311 303.675C389.87 302.534 389.707 302.631 388.949 304.492ZM330.641 304.661C329.918 305.845 329.918 306.301 330.641 307.239C331.408 308.236 331.384 308.272 330.445 307.529C329.566 306.832 329.174 306.902 328.267 307.919C327.231 309.083 327.298 309.341 329.339 312.048L331.518 314.936L331.723 312.189C331.836 310.678 331.836 308.042 331.723 306.332C331.533 303.46 331.451 303.332 330.641 304.661ZM319.792 309.136L319.811 314.512L321.787 312.127C322.875 310.815 323.772 309.553 323.783 309.324C323.793 309.094 322.895 307.748 321.787 306.333L319.774 303.761L319.792 309.136ZM397.767 304.752C398.131 305.86 400.137 307.067 400.686 306.509C400.934 306.257 400.958 305.578 400.739 305C400.28 303.783 397.37 303.54 397.767 304.752ZM248.076 305.687C248.204 306.355 248.714 307.04 249.211 307.207C249.788 307.403 250.03 307.075 249.882 306.298C249.754 305.63 249.244 304.946 248.747 304.778C248.17 304.582 247.928 304.91 248.076 305.687ZM375.807 307.356C376.474 308.106 377.172 308.719 377.357 308.719C377.541 308.719 377.145 308.106 376.478 307.356C375.81 306.606 375.112 305.993 374.928 305.993C374.743 305.993 375.139 306.606 375.807 307.356ZM234.551 307.283C234.551 307.618 235.047 308.084 235.653 308.321C236.574 308.68 236.616 308.58 235.906 307.712C234.94 306.53 234.551 306.406 234.551 307.283ZM383.189 308.718C382.314 309.7 382.155 310.328 382.655 310.836C383.584 311.779 386.312 310.127 386.056 308.775C385.763 307.233 384.534 307.209 383.189 308.718ZM383.167 309.435C382.53 310.483 383.403 311.159 384.265 310.284C384.746 309.794 384.758 309.413 384.299 309.126C383.924 308.89 383.414 309.029 383.167 309.435ZM389.269 310.478C388.686 311.07 388.38 311.837 388.59 312.182C389.278 313.312 390.072 312.839 390.399 311.104C390.775 309.104 390.676 309.049 389.269 310.478ZM407.402 310.327C407.635 310.942 407.633 311.952 407.399 312.572C407.016 313.587 406.88 313.571 406.031 312.401C405.296 311.391 404.907 311.285 404.272 311.922C403.632 312.562 403.697 313.114 404.577 314.477C405.764 316.316 407.218 316.879 406.608 315.262C406.374 314.642 406.676 314.343 407.467 314.41C408.183 314.47 408.607 314.124 408.493 313.576C408.367 312.976 408.673 312.788 409.347 313.05C410.185 313.377 410.266 313.21 409.747 312.226C409.389 311.547 408.62 310.591 408.038 310.1C407.139 309.342 407.043 309.376 407.402 310.327ZM278.399 317.734C275.516 321.96 273.182 325.571 273.213 325.758C273.245 325.946 272.787 326.472 272.196 326.929C271.607 327.386 271.441 327.769 271.828 327.781C272.216 327.793 272.869 327.461 273.28 327.044C273.726 326.59 274.387 326.522 274.924 326.874C276.054 327.615 282.247 328.129 287.229 327.896C288.705 327.827 293.234 328.094 297.294 328.489C304.843 329.224 354.178 328.954 364.31 328.122C367.757 327.84 369.841 327.946 370.316 328.428C371.068 329.193 380.169 329.488 380.169 328.747C380.169 328.516 377.375 324.236 373.961 319.236L367.754 310.143L350.978 310.112L334.202 310.081L334.28 314.853L334.358 319.624H325.725H317.09V314.906V310.187L300.366 310.119L283.641 310.051L278.399 317.734ZM378.463 310.81C378.239 311.178 378.441 311.395 378.913 311.292C379.385 311.189 379.801 311.564 379.84 312.127C379.971 314.048 380.95 315.449 381.902 315.078C382.555 314.824 382.857 315.211 382.867 316.314C382.876 317.197 383.432 318.647 384.105 319.535C385.115 320.869 385.562 321.021 386.682 320.413C387.427 320.008 388.417 318.744 388.881 317.605C389.346 316.466 389.991 315.535 390.315 315.535C390.64 315.535 390.905 315.225 390.905 314.848C390.905 314.44 390.359 314.507 389.563 315.011C388.825 315.479 388.221 316.351 388.221 316.948C388.221 318.561 387.662 318.857 385.662 318.3C384.389 317.946 383.875 317.367 383.912 316.331C383.947 315.349 383.339 314.582 382.072 314.013C380.789 313.436 380.293 312.802 380.53 312.044C380.916 310.809 379.117 309.735 378.463 310.81ZM323.286 314.076C322.093 315.584 321.116 316.989 321.116 317.198C321.116 317.408 323.248 317.579 325.853 317.579C328.891 317.579 330.439 317.331 330.169 316.887C329.937 316.506 329.419 316.4 329.019 316.651C328.596 316.917 328.483 316.793 328.75 316.355C329.002 315.94 328.364 314.64 327.332 313.467L325.455 311.334L323.286 314.076ZM221.802 313.076C221.802 313.598 222.22 314.188 222.732 314.388C223.385 314.643 223.562 314.36 223.325 313.439C222.936 311.93 221.802 311.66 221.802 313.076ZM256.944 313.66C257.166 314.504 257.353 315.424 257.358 315.705C257.363 315.986 257.82 316.216 258.374 316.216C259.577 316.216 259.708 314.096 258.575 312.945C257.295 311.645 256.504 311.992 256.944 313.66ZM386.041 315.21C385.862 316.156 385.978 317.095 386.298 317.295C386.617 317.495 386.879 316.721 386.879 315.575C386.879 313.045 386.481 312.871 386.041 315.21ZM236.322 315.194C236.534 315.756 236.827 316.216 236.972 316.216C237.117 316.216 237.236 315.756 237.236 315.194C237.236 314.632 236.943 314.171 236.585 314.171C236.228 314.171 236.11 314.632 236.322 315.194ZM241.291 315.158C240.5 316.127 240.503 316.263 241.316 316.084C241.997 315.935 242.242 316.496 242.174 318.048C242.08 320.218 242.081 320.218 243.476 318.899C244.729 317.713 244.763 317.491 243.815 316.727C243.234 316.258 242.637 315.458 242.489 314.948C242.277 314.22 242.022 314.264 241.291 315.158ZM338.743 314.58C339.205 315.05 356.801 314.959 357.268 314.484C357.438 314.313 353.248 314.171 347.958 314.171C342.668 314.171 338.521 314.355 338.743 314.58ZM408.416 315.117C407.785 315.888 408.087 316.115 410.052 316.348C412.602 316.65 413.847 315.785 412.297 314.788C410.929 313.907 409.291 314.046 408.416 315.117ZM403.924 317.513C403.977 318.912 404.331 319.283 405.613 319.283C407.959 319.283 408.065 317.874 405.804 316.728C403.903 315.765 403.86 315.783 403.924 317.513ZM390.905 318.117C390.905 318.922 391.095 318.949 391.912 318.261C392.465 317.794 392.918 317.348 392.918 317.269C392.918 317.189 392.465 317.125 391.912 317.125C391.358 317.125 390.905 317.571 390.905 318.117ZM255.354 321.528C255.354 321.889 255.842 322.594 256.438 323.097C257.376 323.888 257.488 323.837 257.276 322.726C257.024 321.401 255.354 320.361 255.354 321.528ZM292.597 321.669C292.329 322.11 295.274 322.35 300.945 322.35C306.34 322.35 309.709 322.089 309.709 321.669C309.709 321.251 306.478 320.987 301.36 320.987C296.519 320.987 292.837 321.273 292.597 321.669ZM226.124 323.097C225.873 323.508 226.128 324.31 226.689 324.88C227.601 325.807 227.698 325.728 227.607 324.133C227.501 322.263 226.891 321.837 226.124 323.097ZM328.833 323.713C327.157 324.018 329.678 324.206 335.544 324.213C342.285 324.221 344.086 324.071 341.919 323.679C338.306 323.026 332.531 323.041 328.833 323.713ZM234.551 324.435C234.551 324.832 234.853 324.967 235.223 324.736C235.592 324.504 235.894 324.18 235.894 324.014C235.894 323.848 235.592 323.713 235.223 323.713C234.853 323.713 234.551 324.039 234.551 324.435ZM391.09 324.995C388.689 326.22 388.563 327.347 390.789 327.679C391.856 327.839 392.43 327.405 392.936 326.052C393.316 325.036 393.543 324.135 393.44 324.048C393.338 323.961 392.28 324.387 391.09 324.995ZM245.66 327.736C244.429 328.225 244.442 328.279 245.892 328.664C247.935 329.207 249.804 328.538 248.532 327.718C247.491 327.048 247.389 327.049 245.66 327.736ZM427.813 327.802C427.259 328.157 425.063 328.649 422.933 328.896C418.987 329.354 417.497 330.213 419.378 330.946C419.954 331.17 420.264 331.617 420.068 331.939C419.872 332.261 419.107 331.911 418.369 331.161C417.631 330.411 417.194 329.524 417.398 329.188C418.238 327.807 416.199 327.77 414.939 329.144L413.575 330.631L414.99 331.97C416.837 333.717 416.776 334.047 414.751 333.264C413.612 332.825 412.948 332.87 412.619 333.411C412.357 333.844 412.479 334.312 412.893 334.452C413.307 334.592 413.46 335.197 413.234 335.797C412.969 336.498 413.089 336.718 413.572 336.416C414.055 336.112 414.228 336.438 414.059 337.329C413.706 339.19 413.121 340.071 412.235 340.071C411.831 340.071 412.047 339.458 412.714 338.708C413.941 337.331 413.244 336.738 411.948 338.055C411.462 338.548 410.995 338.456 410.423 337.755C409.562 336.701 407.681 336.988 407.681 338.172C407.681 338.547 408.134 338.677 408.688 338.461C409.762 338.043 409.917 338.547 409.699 341.775C409.524 344.38 409.007 345.235 408.304 344.081C407.979 343.546 408.082 342.936 408.556 342.593C409.174 342.146 409.165 341.932 408.516 341.665C408.052 341.474 407.873 340.99 408.116 340.589C408.379 340.158 408.243 340.059 407.785 340.347C407.359 340.614 407.01 341.275 407.01 341.815C407.01 342.356 406.594 342.797 406.086 342.797C404.974 342.797 403.293 344.702 403.879 345.297C404.107 345.528 404.787 345.302 405.389 344.794C406.326 344.005 406.615 344.053 407.386 345.123C407.882 345.813 408.734 346.202 409.278 345.99C409.822 345.778 410.629 346.046 411.07 346.586C411.723 347.386 411.622 347.568 410.526 347.568C408.094 347.568 408.224 350.119 410.788 352.724C412.069 354.023 412.947 355.365 412.741 355.703C412.534 356.042 413.114 356.917 414.027 357.647C414.941 358.377 415.512 359.154 415.296 359.373C415.08 359.592 414.464 359.326 413.929 358.781C413.393 358.238 412.673 357.792 412.331 357.792C411.164 357.792 411.703 359.053 413.476 360.468C415.403 362.009 416.767 362.346 416.006 361.094C415.706 360.603 415.822 360.493 416.312 360.801C416.745 361.072 416.912 361.6 416.684 361.974C416.457 362.347 416.827 363.067 417.508 363.572C418.189 364.078 418.903 364.232 419.096 363.915C419.289 363.598 420.112 363.854 420.926 364.484C422.158 365.438 422.423 366.37 422.514 370.06C422.575 372.497 422.583 375.487 422.534 376.705L422.444 378.92H418.458C412.965 378.92 412.43 380.257 417.875 380.376C420.204 380.427 421.354 380.585 420.431 380.726C416.642 381.305 413.721 382.44 413.721 383.332C413.721 383.854 413.192 384.44 412.547 384.634C410.866 385.139 406.363 384.56 405.353 383.708C404.882 383.311 403.946 383.201 403.274 383.463C401.104 384.308 398.361 383.971 396.965 382.687C395.737 381.559 395.486 381.538 394.428 382.475C392.771 383.941 391.425 384.284 390.082 383.584C389.187 383.116 389.012 383.215 389.314 384.016C389.53 384.588 390.354 385.093 391.145 385.139C391.936 385.185 393.791 385.305 395.267 385.403C396.743 385.502 399.461 385.342 401.306 385.046C403.486 384.698 404.972 384.768 405.549 385.247C406.037 385.653 407.396 386.047 408.569 386.123C409.742 386.199 411.23 386.482 411.875 386.753C412.521 387.024 413.05 386.957 413.05 386.605C413.05 386.247 414.642 386.099 416.654 386.268C418.994 386.465 420.43 386.29 420.747 385.768C421.427 384.651 420.645 384.032 419.609 384.866C419.007 385.35 418.156 385.155 416.741 384.211C415.633 383.472 415.28 383.053 415.957 383.279C416.633 383.506 418.557 383.691 420.233 383.691C422.887 383.691 423.171 383.826 422.431 384.73C421.084 386.379 422.183 386.683 423.748 385.094L425.163 383.657L424.737 385.378C424.142 387.786 425.049 387.534 425.9 385.054C426.403 383.59 427.036 383.01 428.13 383.01C430.649 383.01 433.852 382.199 433.852 381.561C433.852 381.234 432.063 380.965 429.875 380.965C425.304 380.965 425.099 380.665 425.926 375.186C426.481 371.507 428.495 368.203 429.934 368.61C432.043 369.206 435.855 369.231 435.499 368.646C435.288 368.299 435.769 368.015 436.569 368.015C437.536 368.015 437.902 367.698 437.663 367.065C437.38 366.316 437.865 366.19 439.94 366.472C441.729 366.716 442.576 366.571 442.576 366.02C442.576 365.574 442.872 365.394 443.233 365.621C443.594 365.848 444.537 365.682 445.327 365.252C446.142 364.81 446.583 364.769 446.346 365.157C446.077 365.601 446.756 365.586 448.27 365.114C450.232 364.503 450.477 364.221 449.786 363.375C449.084 362.516 449.198 362.442 450.55 362.878C451.643 363.231 451.995 363.155 451.679 362.636C451.283 361.983 452.018 361.608 453.381 361.767C453.603 361.793 453.643 361.062 453.47 360.144C453.288 359.177 453.472 358.473 453.905 358.473C454.318 358.473 455.263 357.856 456.006 357.101C457.276 355.811 457.291 355.626 456.268 354.039C455.669 353.11 455.359 351.872 455.58 351.287C455.81 350.676 455.699 350.401 455.318 350.64C454.717 351.018 454.322 349.528 454.61 347.972C454.674 347.631 454.332 347.095 453.851 346.779C453.149 346.318 453.175 346.076 453.984 345.549C454.537 345.188 455.004 344.135 455.021 343.209C455.038 342.283 454.826 341.667 454.551 341.84C454.118 342.112 452.223 339.338 452.528 338.878C452.591 338.785 452.566 338.76 452.474 338.823C451.841 339.257 449.405 337.142 449.685 336.402C450.111 335.274 445.838 332.574 443.626 332.574C442.77 332.574 441.676 332.093 441.195 331.504C440.714 330.916 439.791 330.575 439.143 330.747C438.495 330.919 437.417 330.673 436.748 330.2C436.078 329.727 434.549 329.123 433.349 328.858C431.33 328.411 431.168 328.506 431.168 330.134C431.168 331.101 431.47 331.892 431.839 331.892C432.208 331.892 432.51 332.236 432.51 332.657C432.51 333.186 432.199 333.16 431.504 332.574C430.95 332.107 430.497 331.149 430.497 330.446C430.497 329.742 430.217 329.166 429.875 329.166C429.533 329.166 429.156 328.714 429.036 328.161C428.882 327.448 428.528 327.344 427.813 327.802ZM215.267 329.636C215.891 330.27 216.59 330.597 216.82 330.363C217.481 329.693 216.467 328.484 215.243 328.484C214.219 328.484 214.221 328.574 215.267 329.636ZM270.937 339.264L271.123 348.564L273.808 348.716C275.284 348.8 278.81 349.025 281.645 349.216C284.479 349.406 291.338 349.374 296.888 349.142L306.978 348.721L307.169 342.181L307.36 335.641H325.814H344.268L344.459 342.627L344.65 349.613H362.366H380.082L380.293 342.627C380.409 338.785 380.41 334.491 380.296 333.085L380.087 330.529L327.619 330.432C298.761 330.378 274.16 330.252 272.95 330.15L270.751 329.965L270.937 339.264ZM249.986 331.511C249.986 332.095 250.287 332.574 250.657 332.574C251.026 332.574 251.328 332.285 251.328 331.932C251.328 331.579 251.026 331.102 250.657 330.87C250.287 330.638 249.986 330.927 249.986 331.511ZM422.499 331.427C422.1 331.833 421.778 332.487 421.783 332.881C421.79 333.274 422.033 333.214 422.326 332.746C422.712 332.129 423.563 332.553 425.433 334.293C426.851 335.612 428.15 336.547 428.321 336.374C428.493 336.2 427.769 335.234 426.713 334.228C424.797 332.403 424.796 332.401 426.471 332.912C428.554 333.548 428.134 333.107 425.351 331.737C423.827 330.986 423.021 330.898 422.499 331.427ZM383.986 331.686C384.793 331.846 385.56 332.494 385.691 333.127C385.874 334.021 386.019 333.936 386.34 332.744C386.709 331.378 386.523 331.221 384.635 331.303C383.128 331.369 382.941 331.48 383.986 331.686ZM388.615 332.325C388.086 333.726 389.215 333.978 390.036 332.643C390.609 331.712 390.569 331.438 389.863 331.438C389.361 331.438 388.799 331.837 388.615 332.325ZM399.629 331.852C399.629 332.205 399.931 332.683 400.3 332.915C400.669 333.146 400.971 332.857 400.971 332.273C400.971 331.689 400.669 331.211 400.3 331.211C399.931 331.211 399.629 331.499 399.629 331.852ZM403.763 333.332C403.311 334.069 402.648 334.488 402.291 334.264C401.934 334.04 401.642 334.182 401.642 334.578C401.642 335.461 402.328 335.485 403.632 334.647C404.256 334.246 404.932 334.28 405.478 334.741C406.581 335.67 406.557 334.625 405.441 333.135C404.65 332.079 404.525 332.093 403.763 333.332ZM435.202 333.536C435.639 333.98 436.128 333.942 436.636 333.426C437.218 332.836 437.054 332.671 435.973 332.753C435.029 332.825 434.766 333.092 435.202 333.536ZM422.07 334.683C421.863 335.022 422.183 335.3 422.78 335.3C423.377 335.3 423.701 335.572 423.498 335.904C423.296 336.237 423.731 336.668 424.465 336.863C425.23 337.066 425.798 336.881 425.794 336.429C425.788 335.391 422.56 333.878 422.07 334.683ZM432.953 334.92C432.756 335.442 433.072 336.055 433.655 336.282C435.176 336.874 435.524 336.219 434.333 335.009C433.479 334.142 433.253 334.128 432.953 334.92ZM445.124 335.966C445.752 337.082 446.367 337.696 446.49 337.329C446.614 336.963 447.217 336.656 447.832 336.648C448.691 336.637 448.562 336.324 447.273 335.3C444.722 333.273 443.772 333.567 445.124 335.966ZM287.229 335.3C285.349 335.642 286.656 335.794 291.59 335.806C296.988 335.821 298.008 335.693 295.952 335.261C292.854 334.61 290.976 334.618 287.229 335.3ZM356.346 335.3C354.427 335.649 355.575 335.794 360.373 335.806C365.595 335.821 366.488 335.699 364.399 335.261C361.322 334.614 360.083 334.621 356.346 335.3ZM396.945 335.641C396.945 336.266 397.269 336.667 397.666 336.532C398.063 336.398 398.387 335.997 398.387 335.641C398.387 335.285 398.063 334.884 397.666 334.749C397.269 334.615 396.945 335.016 396.945 335.641ZM437.207 335.577C437.207 336.213 437.679 336.41 438.607 336.164C439.67 335.881 439.79 335.654 439.11 335.216C437.805 334.377 437.207 334.49 437.207 335.577ZM383.282 336.321C382.483 338.435 382.847 340.747 384.195 342.116C385.264 343.201 385.537 343.266 385.537 342.435C385.537 341.86 386.216 341.113 387.047 340.774C388.386 340.227 387.71 339.715 386.021 339.997C385.103 340.15 384.66 337.963 385.448 337.163C385.866 336.738 386.203 336.068 386.198 335.675C386.192 335.282 385.89 335.419 385.527 335.982C384.986 336.819 384.761 336.839 384.288 336.095C383.826 335.368 383.624 335.414 383.282 336.321ZM416.069 335.982C415.841 336.356 415.975 336.663 416.365 336.663C416.756 336.663 417.076 336.356 417.076 335.982C417.076 335.607 416.943 335.3 416.78 335.3C416.617 335.3 416.298 335.607 416.069 335.982ZM394.338 338.197C394.282 339.561 394.58 340.068 395.435 340.061C396.18 340.054 396.331 339.867 395.848 339.55C395.429 339.274 394.936 338.435 394.752 337.686C394.495 336.641 394.398 336.76 394.338 338.197ZM314.848 337.883C309.573 338.059 308.962 338.21 309.346 339.246C313.138 349.492 316.152 357.099 316.419 357.099C316.867 357.098 323.887 338.568 323.564 338.24C323.106 337.775 320.857 337.683 314.848 337.883ZM327.448 338.537C330.146 345.913 334.78 357.771 334.909 357.63C335 357.532 336.65 353.31 338.576 348.25C340.502 343.189 342.225 338.666 342.405 338.197C342.656 337.544 340.889 337.345 334.873 337.345C327.668 337.345 327.049 337.444 327.448 338.537ZM389.771 338.321C389.129 339.064 389.285 339.307 390.558 339.554C391.695 339.775 392.237 339.505 392.469 338.604C392.857 337.097 390.997 336.903 389.771 338.321ZM441.234 338.026C441.234 338.401 441.536 338.708 441.905 338.708C442.274 338.708 442.576 338.401 442.576 338.026C442.576 337.651 442.274 337.345 441.905 337.345C441.536 337.345 441.234 337.651 441.234 338.026ZM421.102 338.966C421.102 339.573 421.404 340.071 421.773 340.071C422.142 340.071 422.444 340.531 422.444 341.093C422.444 341.656 422.718 342.116 423.052 342.116C423.903 342.116 423.166 339.599 422.036 338.647C421.304 338.029 421.102 338.098 421.102 338.966ZM439.221 338.987C439.221 339.116 439.674 339.604 440.227 340.071C440.808 340.56 441.234 340.627 441.234 340.227C441.234 339.847 440.781 339.359 440.227 339.143C439.674 338.927 439.221 338.857 439.221 338.987ZM433.181 340.071C433.181 340.446 433.483 340.753 433.852 340.753C434.221 340.753 434.523 340.446 434.523 340.071C434.523 339.696 434.221 339.389 433.852 339.389C433.483 339.389 433.181 339.696 433.181 340.071ZM449.508 340.468C449.26 341.123 449.72 342.129 450.678 343.024L452.256 344.501L451.026 342.993C450.349 342.163 449.973 341.014 450.19 340.437C450.408 339.861 450.435 339.389 450.251 339.389C450.066 339.389 449.732 339.875 449.508 340.468ZM214.078 341.445C213.846 341.826 213.379 341.964 213.039 341.75C212.7 341.538 212.602 341.839 212.822 342.421C213.356 343.836 213.928 343.754 214.935 342.116C215.396 341.366 215.487 340.753 215.136 340.753C214.786 340.753 214.309 341.064 214.078 341.445ZM451.299 341.361C451.299 341.696 451.795 342.163 452.401 342.399C453.322 342.758 453.364 342.658 452.654 341.791C451.688 340.608 451.299 340.485 451.299 341.361ZM218.876 341.906C218.646 342.14 218.793 342.741 219.203 343.242C219.612 343.743 219.794 344.745 219.608 345.469C219.381 346.351 219.553 346.674 220.13 346.449C221.555 345.894 221.787 342.838 220.459 342.116C219.818 341.767 219.106 341.673 218.876 341.906ZM414.839 341.889C414.214 342.524 414.281 343.479 414.951 343.479C415.259 343.479 415.511 343.019 415.511 342.457C415.511 341.299 415.462 341.257 414.839 341.889ZM441.458 342.219C442.366 342.743 442.581 343.403 442.277 344.738C441.968 346.091 442.035 346.289 442.545 345.524C443.778 343.674 443.376 341.733 441.737 341.617C440.361 341.519 440.336 341.572 441.458 342.219ZM437.207 343.519C437.207 343.916 437.509 344.051 437.879 343.82C438.248 343.588 438.55 343.263 438.55 343.098C438.55 342.932 438.248 342.797 437.879 342.797C437.509 342.797 437.207 343.122 437.207 343.519ZM240.298 344.36C240.551 345.032 240.926 345.41 241.132 345.201C241.339 344.991 241.133 344.441 240.674 343.978C240.011 343.311 239.935 343.389 240.298 344.36ZM308.393 360.234L308.418 377.216L311.739 368.571L315.06 359.926L311.997 351.877C310.313 347.45 308.807 343.698 308.65 343.54C308.494 343.381 308.378 350.894 308.393 360.234ZM320.926 351.562L317.716 359.79L320.926 368.163L324.136 376.535L324.325 368.186C324.428 363.593 324.428 356.123 324.325 351.585L324.136 343.334L320.926 351.562ZM339.402 351.323C337.834 355.545 336.551 359.417 336.551 359.926C336.551 360.436 337.834 364.227 339.402 368.353L342.254 375.853L342.443 367.465C342.547 362.852 342.547 355.605 342.443 351.362L342.254 343.647L339.402 351.323ZM223.689 344.626C224.173 344.823 224.752 344.798 224.975 344.572C225.198 344.346 224.802 344.185 224.095 344.214C223.313 344.247 223.154 344.409 223.689 344.626ZM246.64 344.956C246.635 345.58 246.253 346.228 245.791 346.396C245.33 346.563 245.104 346.87 245.29 347.078C245.474 347.287 246.132 347.081 246.751 346.622C247.523 346.048 247.684 345.478 247.263 344.802C246.752 343.981 246.649 344.006 246.64 344.956ZM327.158 357.792C327.113 365.476 326.989 372.918 326.883 374.329C326.777 375.74 326.779 376.803 326.888 376.693C327.391 376.182 333.193 360.517 333.174 359.718C333.163 359.221 331.823 355.44 330.196 351.317L327.239 343.82L327.158 357.792ZM388.274 345.239C388.306 346.033 388.465 346.195 388.679 345.652C388.873 345.16 388.849 344.571 388.626 344.345C388.404 344.119 388.245 344.521 388.274 345.239ZM393.254 344.842C393.482 345.217 393.801 345.524 393.965 345.524C394.128 345.524 394.26 345.217 394.26 344.842C394.26 344.467 393.94 344.16 393.55 344.16C393.159 344.16 393.026 344.467 393.254 344.842ZM212.587 345.314C213.24 345.487 214.146 345.476 214.601 345.289C215.055 345.102 214.521 344.961 213.413 344.975C212.306 344.989 211.935 345.141 212.587 345.314ZM280.854 345.524C280.177 345.968 282.883 346.187 289.114 346.195C295.123 346.202 298.234 345.965 297.965 345.524C297.429 344.642 282.196 344.642 280.854 345.524ZM349.971 345.524C349.296 345.967 352.062 346.172 358.36 346.147C364.224 346.123 367.25 345.89 366.412 345.524C364.555 344.713 351.206 344.713 349.971 345.524ZM412.481 345.895C413.09 346.528 413.955 346.921 414.402 346.769C414.85 346.618 414.35 346.101 413.293 345.62C411.495 344.801 411.443 344.819 412.481 345.895ZM434.902 346.005C434.538 346.977 434.615 347.055 435.278 346.387C435.737 345.924 435.943 345.374 435.736 345.165C435.529 344.955 435.154 345.333 434.902 346.005ZM251.328 346.205C250.723 346.602 250.64 346.87 251.12 346.876C251.56 346.882 252.106 346.58 252.334 346.205C252.849 345.359 252.617 345.359 251.328 346.205ZM391 346.887C391 347.449 391.259 348.522 391.576 349.272C391.94 350.132 392.153 350.257 392.153 349.613C392.153 349.051 391.894 347.977 391.576 347.227C391.213 346.368 391 346.243 391 346.887ZM395.078 349.557L395.412 353.086L393.495 352.659C391.929 352.31 391.652 352.429 391.984 353.308C392.208 353.899 392.636 354.384 392.935 354.384C393.234 354.384 393.957 354.57 394.541 354.798C395.254 355.076 395.603 354.828 395.603 354.043C395.603 353.367 395.968 353.017 396.472 353.214C397.537 353.629 397.845 351.055 396.872 349.865C396.498 349.407 396.286 348.505 396.4 347.86C396.515 347.215 396.19 346.539 395.676 346.358C394.932 346.095 394.811 346.742 395.078 349.557ZM204.809 347.677C203.861 348.216 203.775 348.563 204.399 349.327C205.54 350.723 206.6 350.511 207.416 348.721C207.995 347.451 207.93 347.142 207.069 347.076C206.486 347.032 205.47 347.302 204.809 347.677ZM386.261 347.966C386.293 348.76 386.452 348.921 386.666 348.378C386.86 347.886 386.836 347.298 386.613 347.071C386.39 346.845 386.232 347.247 386.261 347.966ZM421.529 347.905C421.741 348.465 422.189 348.751 422.526 348.539C423.23 348.098 422.665 346.887 421.755 346.887C421.419 346.887 421.318 347.345 421.529 347.905ZM436.971 348.784C437.095 348.983 436.882 349.531 436.498 350.001C435.612 351.084 436.62 351.766 437.911 350.956C438.752 350.427 438.739 350.213 437.815 349.382C437.228 348.853 436.847 348.584 436.971 348.784ZM388.006 349.88C387.364 351.579 387.984 353.357 389.291 353.569C390.223 353.719 390.331 353.61 389.692 353.163C389.124 352.767 388.973 351.911 389.261 350.741C389.724 348.87 388.663 348.142 388.006 349.88ZM411.047 349.743C411.041 350.377 411.339 351.085 411.708 351.317C412.557 351.85 412.557 350.947 411.708 349.613C411.147 348.732 411.056 348.75 411.047 349.743ZM224.155 350.287C223.92 350.673 224.189 350.787 224.786 350.555C225.949 350.102 226.161 349.613 225.196 349.613C224.849 349.613 224.38 349.916 224.155 350.287ZM237.236 350.976C236.631 351.373 236.548 351.641 237.028 351.647C237.468 351.653 238.014 351.351 238.242 350.976C238.757 350.13 238.525 350.13 237.236 350.976ZM440.206 351.01C439.59 352.023 440.08 352.382 441.157 351.706C441.734 351.343 441.803 350.992 441.352 350.71C440.969 350.469 440.453 350.605 440.206 351.01ZM270.788 360.196V369.417L276.66 369.438C279.889 369.449 283.588 369.492 284.88 369.532C286.172 369.572 291.682 369.554 297.127 369.492L307.024 369.378V360.177V350.976H288.906H270.788V360.196ZM344.603 360.518V370.06H362.386H380.169V360.446V350.833L372.698 351.189C367.134 351.455 364.958 351.821 364.167 352.624C363.198 353.608 363.368 353.709 366.101 353.783C367.748 353.827 370.002 354.098 371.109 354.384C372.345 354.704 369.496 354.931 363.728 354.974C357.442 355.021 354.666 354.826 355.34 354.384C355.893 354.021 357.78 353.719 359.534 353.713C363.139 353.701 363.791 352.727 360.624 352.084C357.373 351.423 355.018 351.577 354.09 352.51C353.412 353.192 353.111 353.124 352.58 352.169C352.077 351.261 351.044 350.976 348.26 350.976H344.603V360.518ZM385.523 352.696C385.056 353.268 384.805 353.867 384.963 354.029C385.122 354.19 385.621 353.723 386.071 352.99C387.045 351.405 386.721 351.232 385.523 352.696ZM237.236 353.021C237.236 353.396 237.707 353.702 238.282 353.702C238.857 353.702 239.141 353.396 238.913 353.021C238.685 352.646 238.215 352.339 237.867 352.339C237.519 352.339 237.236 352.646 237.236 353.021ZM452.642 352.981C452.642 353.334 452.915 353.794 453.249 354.004C453.584 354.214 453.7 354.999 453.507 355.748C453.121 357.246 453.957 357.546 455.148 356.337C455.716 355.76 455.645 355.153 454.869 353.951C453.816 352.319 452.642 351.807 452.642 352.981ZM409.471 353.475C408.651 354.308 409.009 355.066 410.198 355.012C410.906 354.979 411.038 354.821 410.529 354.613C410.066 354.423 409.857 353.987 410.066 353.644C410.506 352.92 410.124 352.812 409.471 353.475ZM426.471 354.384C426.471 355.134 426.587 355.747 426.728 355.747C426.869 355.747 427.143 355.134 427.336 354.384C427.529 353.634 427.414 353.021 427.079 353.021C426.745 353.021 426.471 353.634 426.471 354.384ZM287.229 354.384C286.008 354.7 288.914 354.917 294.61 354.937C300.414 354.957 303.492 354.746 302.663 354.384C301.021 353.667 290.002 353.667 287.229 354.384ZM418.418 354.642C418.418 354.783 418.947 355.32 419.592 355.834C420.657 356.682 420.68 356.658 419.846 355.577C418.969 354.441 418.418 354.081 418.418 354.642ZM389.146 356.005C389.232 356.592 389.488 357.261 389.717 357.494C389.946 357.726 390.064 357.437 389.98 356.852C389.895 356.266 389.638 355.596 389.409 355.363C389.18 355.131 389.062 355.42 389.146 356.005ZM392.247 356.429C391.643 356.825 391.56 357.093 392.04 357.1C392.48 357.105 393.026 356.804 393.254 356.429C393.769 355.582 393.536 355.582 392.247 356.429ZM397.176 356.799C396.957 357.377 396.954 358.028 397.168 358.246C397.845 358.934 399.629 357.879 399.629 356.791C399.629 355.43 397.691 355.437 397.176 356.799ZM409.024 356.429C409.024 356.804 409.476 357.11 410.03 357.11C410.584 357.11 411.037 356.804 411.037 356.429C411.037 356.054 410.584 355.747 410.03 355.747C409.476 355.747 409.024 356.054 409.024 356.429ZM417.076 356.232C417.076 356.623 417.605 357.364 418.25 357.879C419.337 358.744 419.351 358.712 418.44 357.451C417.899 356.701 417.371 355.96 417.266 355.804C417.161 355.648 417.076 355.84 417.076 356.232ZM435.194 357.089C435.194 357.452 435.647 357.572 436.201 357.357C436.755 357.141 437.207 356.844 437.207 356.697C437.207 356.549 436.755 356.429 436.201 356.429C435.647 356.429 435.194 356.726 435.194 357.089ZM451.024 357.621C450.757 358.465 450.239 359.155 449.873 359.155C449.506 359.155 449.408 359.484 449.652 359.886C450.218 360.816 452.183 358.09 451.79 356.922C451.636 356.463 451.291 356.778 451.024 357.621ZM419.537 360.973C419.291 361.222 419.089 361.733 419.089 362.108C419.089 362.483 419.288 362.588 419.531 362.341C419.774 362.095 420.427 362.274 420.983 362.739C421.863 363.477 421.89 363.388 421.189 362.052C420.309 360.375 420.197 360.302 419.537 360.973ZM445.931 361.24C445.931 361.636 446.233 361.772 446.602 361.54C446.971 361.309 447.273 360.984 447.273 360.819C447.273 360.653 446.971 360.518 446.602 360.518C446.233 360.518 445.931 360.843 445.931 361.24ZM351.985 361.811L348.294 362.267L352.656 362.809C355.055 363.108 358.802 363.177 360.983 362.963C365.281 362.541 366.876 361.881 363.598 361.881C362.48 361.881 360.241 361.763 358.621 361.618C357.001 361.474 354.014 361.56 351.985 361.811ZM280.481 362.501C280.914 363.214 295.329 363.081 296.041 362.359C296.3 362.096 292.82 361.881 288.308 361.881C283.549 361.881 280.262 362.142 280.481 362.501ZM426.471 367.334C426.075 368.083 426.004 368.697 426.313 368.697C427.026 368.697 428.484 367.233 428.484 366.516C428.484 365.458 427.18 365.988 426.471 367.334ZM432.385 367.799C432.868 367.996 433.448 367.972 433.67 367.745C433.893 367.519 433.497 367.358 432.79 367.388C432.008 367.42 431.849 367.582 432.385 367.799ZM247.17 371.783C246.633 372.329 248.06 376.876 248.769 376.876C249.083 376.876 249.143 376.032 248.901 375.001C248.323 372.533 247.655 371.291 247.17 371.783ZM238.578 374.335C238.578 375.675 238.933 375.89 241.212 375.93C243.253 375.966 243.828 375.726 243.764 374.863C243.706 374.082 243.119 373.789 241.801 373.882C240.766 373.954 239.92 373.738 239.92 373.4C239.92 373.062 239.618 372.786 239.249 372.786C238.88 372.786 238.578 373.484 238.578 374.335ZM244.617 375.44C244.617 376.131 246.661 377.072 247.129 376.596C247.298 376.425 247.237 375.958 246.993 375.558C246.458 374.678 244.617 374.586 244.617 375.44ZM363.382 376.225C362.282 377.084 360.616 377.532 358.488 377.542C356.322 377.552 355.41 377.803 355.715 378.304C355.965 378.715 357.152 378.934 358.354 378.792C360.158 378.578 360.439 378.715 359.968 379.579C359.654 380.153 359.076 381.928 358.684 383.521C357.904 386.695 357.114 387.148 356.011 385.054C355.084 383.295 354.249 383.321 353.786 385.123C353.569 385.966 353.105 386.359 352.658 386.079C352.242 385.816 351.372 386.088 350.727 386.681C349.798 387.535 349.078 387.621 347.273 387.095C345.779 386.66 344.763 386.664 344.328 387.106C343.963 387.477 342.969 387.781 342.12 387.781C341.271 387.781 340.577 388.087 340.577 388.462C340.577 389.322 335.838 389.353 333.649 388.508C332.304 387.989 331.728 388.169 330.508 389.488C329.397 390.689 328.476 391.035 326.92 390.835C325.769 390.687 324.721 390.244 324.592 389.851C324.463 389.457 324.081 389.309 323.744 389.521C323.406 389.733 323.13 389.581 323.13 389.184C323.13 388.787 322.828 388.462 322.459 388.462C322.089 388.462 321.787 388.922 321.787 389.485C321.787 390.352 321.171 390.626 319.103 390.677C318.919 390.681 317.787 390.5 316.587 390.273C314.134 389.808 313.594 390.835 315.9 391.578C317.818 392.197 329.449 392.196 330.434 391.578C330.845 391.319 331.182 391.366 331.182 391.682C331.182 391.998 333.221 392.246 335.712 392.233C339.072 392.217 340.359 391.947 340.698 391.189C341.071 390.352 341.162 390.383 341.201 391.359C341.255 392.717 342.59 393.02 342.59 391.675C342.59 391.04 345.239 390.559 352.152 389.939C365.773 388.717 369.322 388.171 370.273 387.151C370.96 386.413 370.677 386.33 368.686 386.689C367.354 386.929 365.548 386.857 364.675 386.529C363.089 385.933 363.09 385.93 365.253 384.794C366.444 384.168 367.419 383.338 367.419 382.948C367.419 382.559 366.211 382.931 364.734 383.773C363.258 384.616 362.05 385.523 362.05 385.789C362.05 386.054 361.597 386.449 361.042 386.665C360.182 387 360.193 386.808 361.119 385.375C361.716 384.449 362.472 383.691 362.798 383.691C363.125 383.691 363.392 383.231 363.392 382.669C363.392 381.442 361.962 381.327 360.842 382.465C360.27 383.046 360.037 383.06 360.037 382.511C360.037 381.346 363.721 378.922 365.509 378.91C366.374 378.904 367.536 378.602 368.09 378.239C368.835 377.749 368.423 377.576 366.498 377.567C364.246 377.559 364.012 377.418 364.748 376.519C366.042 374.935 365.254 374.766 363.382 376.225ZM280.518 376.194C280.252 376.631 282.537 376.876 286.893 376.876C291.249 376.876 293.534 376.631 293.268 376.194C293.04 375.819 290.171 375.513 286.893 375.513C283.615 375.513 280.746 375.819 280.518 376.194ZM256.034 380.318C256.051 382.117 256.843 384.373 257.458 384.373C257.791 384.373 257.868 383.529 257.629 382.499C257.125 380.33 256.02 378.818 256.034 380.318ZM239.123 380.749C239.607 380.946 240.186 380.921 240.409 380.695C240.632 380.469 240.236 380.308 239.529 380.337C238.747 380.37 238.588 380.532 239.123 380.749ZM247.009 382.129C246.645 383.1 246.722 383.178 247.385 382.51C247.844 382.047 248.05 381.497 247.843 381.288C247.636 381.078 247.261 381.456 247.009 382.129ZM258.156 382.108C258.284 382.783 258.914 383.438 259.555 383.563C261.156 383.876 261.023 382.847 259.323 381.769C258.089 380.986 257.952 381.026 258.156 382.108ZM373.887 381.438C373.242 382.093 373.371 385.601 374.057 386.031C374.385 386.238 374.78 385.317 374.933 383.985C375.203 381.632 374.76 380.551 373.887 381.438ZM243.275 382.328C243.275 382.703 243.879 383.01 244.617 383.01C245.355 383.01 245.959 382.703 245.959 382.328C245.959 381.953 245.355 381.647 244.617 381.647C243.879 381.647 243.275 381.953 243.275 382.328ZM386.208 383.506C386.208 384.322 386.762 385.043 387.55 385.252C388.288 385.448 388.892 385.378 388.892 385.096C388.892 384.815 388.288 384.029 387.55 383.351C386.25 382.155 386.208 382.16 386.208 383.506ZM435.643 384.543C436.1 386.979 436.364 387.501 436.877 386.981C437.399 386.45 436.444 382.328 435.798 382.328C435.485 382.328 435.414 383.325 435.643 384.543ZM433.582 383.511C433.301 383.798 432.868 384.047 432.622 384.066C432.376 384.084 431.495 384.335 430.665 384.623C428.138 385.499 428.975 386.435 432.175 386.313C433.841 386.249 435.19 385.864 435.184 385.455C435.167 384.216 434.129 382.956 433.582 383.511ZM246.63 385.707C246.63 386.098 247.158 386.433 247.805 386.452C248.451 386.472 251.035 386.72 253.549 387.003C256.062 387.287 258.27 387.269 258.456 386.964C258.934 386.179 257.756 385.904 251.831 385.422C248.405 385.142 246.63 385.24 246.63 385.707ZM426.471 386.133C426.471 387.337 427.915 387.128 428.33 385.864C428.476 385.418 428.117 385.054 427.533 385.054C426.949 385.054 426.471 385.54 426.471 386.133ZM278.235 386.923C277.608 387.604 276.569 387.806 275.012 387.549C273.394 387.283 272.792 387.413 272.982 387.987C273.167 388.547 275.288 388.8 279.737 388.792C283.304 388.786 286.222 388.974 286.222 389.209C286.222 389.61 289.381 389.425 292.726 388.829C293.535 388.685 294.342 388.926 294.518 389.367C294.695 389.806 294.828 389.093 294.815 387.781C294.801 386.469 294.644 385.977 294.464 386.687C294.214 387.678 294.01 387.767 293.587 387.071C293.172 386.39 292.808 386.355 292.124 386.932C291.623 387.355 290.392 387.851 289.389 388.036C287.869 388.316 287.555 388.123 287.511 386.884C287.482 386.065 287.309 385.769 287.127 386.225C286.575 387.608 282.384 388.063 280.674 386.925C279.339 386.037 279.05 386.036 278.235 386.923ZM352.53 387.565C353.014 387.762 353.593 387.737 353.816 387.511C354.039 387.285 353.643 387.124 352.935 387.153C352.154 387.186 351.995 387.347 352.53 387.565ZM235.894 389.03C235.894 389.468 235.34 389.825 234.664 389.825C233.986 389.825 233.433 390.281 233.433 390.837C233.433 391.603 233.65 391.665 234.328 391.095C234.82 390.679 235.232 390.608 235.243 390.935C235.254 391.262 235.584 390.97 235.975 390.286C236.367 389.601 236.509 388.86 236.291 388.638C236.072 388.417 235.894 388.593 235.894 389.03ZM332.524 390.463C332.524 390.748 333.461 391.008 334.606 391.041C335.751 391.074 336.516 390.927 336.306 390.713C335.701 390.099 332.524 389.889 332.524 390.463ZM228.848 391.189C228.619 391.563 228.735 391.87 229.104 391.87C229.473 391.87 229.962 391.563 230.19 391.189C230.418 390.814 230.302 390.507 229.933 390.507C229.564 390.507 229.076 390.814 228.848 391.189ZM264.749 391.553C264.749 392.42 265.007 392.463 266.258 391.802C268.479 390.628 268.505 390.507 266.538 390.507C265.377 390.507 264.749 390.874 264.749 391.553ZM301.845 393.539C301.396 395.02 301.145 396.349 301.288 396.495C301.827 397.043 303.073 393.781 302.873 392.346C302.71 391.186 302.478 391.456 301.845 393.539ZM291.435 393.205C290.555 394.248 289.686 394.452 287.104 394.22C284.4 393.977 284.053 394.07 284.971 394.793C285.658 395.332 287.921 395.622 291.011 395.564C297.87 395.439 298.301 395.377 298.301 394.523C298.301 394.108 297.826 393.954 297.246 394.18C296.205 394.586 293.614 393.562 292.902 392.464C292.7 392.153 292.04 392.486 291.435 393.205ZM311.041 393.063C311.033 393.925 310.881 394.017 310.492 393.394C310.066 392.713 309.507 392.758 307.818 393.614C305.2 394.941 305.003 396.251 307.494 395.767C308.49 395.573 310 395.684 310.849 396.011C312.277 396.563 312.393 396.429 312.393 394.239C312.393 392.936 312.091 391.87 311.722 391.87C311.353 391.87 311.046 392.407 311.041 393.063ZM299.691 394.198C298.629 395.496 298.947 396.136 300.248 395.32C300.743 395.009 301.025 394.378 300.874 393.919C300.68 393.325 300.338 393.405 299.691 394.198ZM385.375 393.625C384.836 394.173 386.472 399.234 387.502 400.206C388.255 400.917 388.348 400.867 388.024 399.927C387.806 399.298 387.426 397.684 387.178 396.341C386.734 393.939 386.062 392.927 385.375 393.625ZM371.737 396.295C371.347 398.407 371.778 401.365 372.373 400.658C372.496 400.51 372.786 398.933 373.015 397.152C373.497 393.412 372.405 392.679 371.737 396.295ZM400.601 394.782C400.358 395.425 399.889 395.782 399.558 395.574C399.228 395.367 398.958 396.136 398.958 397.282C398.958 399.052 399.211 399.367 400.635 399.367C402.02 399.367 402.311 399.041 402.303 397.493C402.297 396.463 402.011 395.168 401.667 394.616C401.133 393.755 400.98 393.779 400.601 394.782ZM303.446 395.051C302.63 395.878 302.982 396.605 304.005 396.206C304.558 395.99 305.011 395.54 305.011 395.205C305.011 394.491 304.087 394.399 303.446 395.051ZM374.577 395.733C373.987 396.331 373.998 399.367 374.589 399.367C374.842 399.367 375.823 398.682 376.77 397.844C377.717 397.006 378.114 396.761 377.652 397.299C376.375 398.788 376.609 399.074 379.162 399.143C382.057 399.222 382.122 398.704 379.412 397.137C377.794 396.202 377.111 396.108 376.382 396.722C375.627 397.359 375.524 397.294 375.863 396.396C376.281 395.29 375.44 394.855 374.577 395.733ZM271.833 396.812C271.692 397.28 271.247 398.71 270.844 399.989C270.091 402.379 270.355 403.515 271.401 402.389C272.118 401.617 273.088 395.96 272.504 395.96C272.275 395.96 271.973 396.343 271.833 396.812ZM388.221 397.003C388.221 397.578 388.75 398.245 389.395 398.487C390.041 398.729 390.792 399.256 391.063 399.658C391.341 400.071 391.56 399.721 391.566 398.856C391.572 397.943 391.169 397.323 390.57 397.323C390.016 397.323 389.563 397.016 389.563 396.641C389.563 396.266 389.261 395.96 388.892 395.96C388.523 395.96 388.221 396.429 388.221 397.003ZM256.025 398.385C256.025 399.383 255.736 399.948 255.349 399.705C254.977 399.472 254.181 399.78 253.58 400.39C252.705 401.279 252.656 401.661 253.333 402.308C253.955 402.901 254.255 402.911 254.461 402.343C254.629 401.882 255.677 401.698 257.062 401.888C258.698 402.111 259.384 401.938 259.39 401.298C259.397 400.746 259.594 400.657 259.894 401.071C260.529 401.95 262.735 402.137 262.735 401.313C262.735 400.96 263.327 401.005 264.078 401.412C265.226 402.036 265.42 401.93 265.42 400.681C265.42 399.563 265.145 399.333 264.245 399.701C261.984 400.625 261.048 400.517 259.919 399.203C259.293 398.475 258.462 398.079 258.074 398.323C257.685 398.567 257.367 398.288 257.367 397.704C257.367 397.12 257.065 396.641 256.696 396.641C256.327 396.641 256.025 397.426 256.025 398.385ZM285.456 396.965C284.929 397.501 285.689 402.775 286.292 402.775C287.062 402.775 287.083 397.522 286.315 397.041C285.998 396.842 285.611 396.807 285.456 396.965ZM392.918 397.926C392.918 398.906 393.228 399.204 393.953 398.921C395.099 398.475 394.958 397.218 393.716 396.797C393.273 396.647 392.918 397.15 392.918 397.926ZM396.777 397.111C396.131 397.282 395.603 397.878 395.603 398.435C395.603 399.005 395.929 399.243 396.349 398.98C396.759 398.722 397.358 398.934 397.68 399.451C398.097 400.118 398.269 399.849 398.277 398.515C398.282 397.485 398.211 396.677 398.119 396.72C398.027 396.764 397.422 396.94 396.777 397.111ZM402.984 397.471C402.984 398.078 403.167 399.057 403.389 399.646C403.746 400.589 403.993 400.56 405.445 399.399C406.361 398.668 407.574 398.267 408.17 398.499C408.922 398.792 409.086 398.659 408.717 398.051C408.396 397.524 407.472 397.331 406.356 397.558C405.347 397.763 404.176 397.579 403.753 397.15C403.175 396.563 402.984 396.642 402.984 397.471ZM410.533 397.092C409.038 397.706 409.636 398.796 411.204 398.314C413.342 397.659 414.28 396.629 412.681 396.695C411.961 396.724 410.995 396.904 410.533 397.092ZM383.02 397.802C381.849 398.243 381.97 399.367 383.188 399.367C383.742 399.367 384.195 399.735 384.195 400.185C384.195 400.818 384.377 400.818 385.005 400.181C385.638 399.538 385.601 399.153 384.837 398.422C384.299 397.907 383.482 397.628 383.02 397.802ZM282.678 399.197C283.063 400.241 282.978 400.273 281.986 399.455C281.274 398.866 280.854 398.797 280.854 399.269C280.854 400.054 284.065 402.47 284.506 402.015C285.115 401.388 283.967 398.004 283.145 398.004C282.561 398.004 282.394 398.429 282.678 399.197ZM267.936 399.635C266.581 400.679 266.424 401.801 267.537 402.499C268.017 402.801 268.129 402.687 267.832 402.199C267.549 401.732 267.78 401.412 268.4 401.412C268.975 401.412 269.446 401.284 269.446 401.127C269.446 400.97 269.629 400.357 269.853 399.764C270.346 398.46 269.53 398.406 267.936 399.635ZM244.617 399.89C244.617 400.265 245.296 400.756 246.127 400.983C248.52 401.634 251.999 401.478 251.999 400.72C251.999 400.339 251.168 400.048 250.153 400.075C249.139 400.101 247.477 399.917 246.463 399.665C245.38 399.397 244.617 399.49 244.617 399.89ZM278.337 400.236C276.138 401.26 276.488 401.942 279.176 401.869C281.652 401.803 282.072 401.342 280.686 400.216C280.126 399.761 279.346 399.767 278.337 400.236ZM273.975 400.807C272.266 401.787 272.513 402.957 274.311 402.396C276.293 401.777 276.527 401.515 275.776 400.762C275.394 400.379 274.691 400.397 273.975 400.807ZM333.382 401.057C332.193 401.583 330.683 401.998 330.027 401.979C326.552 401.885 314.982 403.061 314.692 403.539C314.506 403.844 313.46 403.912 312.367 403.69C311.216 403.456 310.38 403.575 310.38 403.973C310.38 405.371 311.764 405.361 332.189 403.825C339.408 403.282 341.248 402.944 341.248 402.16C341.248 401.836 340.643 401.411 339.905 401.214C339.166 401.018 338.731 401.136 338.938 401.475C339.551 402.484 338.072 402.178 336.982 401.071C335.794 399.864 336.081 399.866 333.382 401.057Z" fill="#6A8E4E" fill-opacity="0.5"/>
</svg>
