<svg width="102" height="720" viewBox="0 0 102 720" fill="none" xmlns="http://www.w3.org/2000/svg">
<path fill-rule="evenodd" clip-rule="evenodd" d="M88.5611 2.56095C87.7295 4.9853 90.9549 5.78396 92.2752 3.48181C92.8831 2.42167 92.5481 1.73695 91.1945 1.27267C89.8409 0.808385 89.0254 1.20736 88.5611 2.56095ZM80.1654 1.01538C78.3211 1.58695 78.2178 1.82956 79.156 3.36925C80.3287 5.29172 82.3625 5.22177 83.0441 3.23443C83.7196 1.26505 82.469 0.300109 80.1654 1.01538ZM97.8386 7.81418C97.2678 8.28232 97.0929 9.26367 97.4503 9.99412C98.2855 11.7015 101.629 11.6094 101.645 9.87778C101.661 8.11678 99.1387 6.74834 97.8386 7.81418ZM71.3009 4.58124C70.0179 6.11493 71.0356 8.6249 72.7815 8.22894C74.6019 7.81623 75.0915 5.58751 73.63 4.36521C72.8981 3.75263 71.9186 3.84375 71.3009 4.58124ZM104.377 16.935C103.764 17.6668 103.856 18.6464 104.593 19.264C106.127 20.5471 108.637 19.5294 108.241 17.7834C107.828 15.9631 105.599 15.4735 104.377 16.935ZM63.0299 10.2018C61.7469 11.7355 62.7646 14.2455 64.5105 13.8495C66.3309 13.4368 66.8205 11.2081 65.359 9.98577C64.6271 9.37318 63.6476 9.4643 63.0299 10.2018ZM56.0243 16.3219C54.2258 17.201 54.3543 19.2949 56.2462 19.9438C57.5685 20.3974 58.2839 20.0687 58.4423 18.9348C58.702 17.0776 57.3851 15.6554 56.0243 16.3219ZM48.6242 24.8218C47.24 25.9571 48.5969 28.3011 50.5952 28.2296C51.5565 28.1946 52.2297 27.4772 52.1953 26.5235C52.1274 24.6194 50.0674 23.638 48.6242 24.8218ZM43.3798 32.4679C41.9168 32.8002 41.8262 33.1106 42.6844 34.8649C43.5299 36.5948 43.892 36.7444 45.2422 35.9209C47.3341 34.6457 45.856 31.9059 43.3798 32.4679ZM37.3365 40.9447C36.8479 42.3693 37.1665 43.0494 38.4046 43.2246C39.3749 43.3608 40.3844 42.8465 40.6472 42.0803C40.91 41.3141 40.4287 40.2885 39.5791 39.8004C38.4941 39.1788 37.8252 39.5202 37.3365 40.9447ZM32.5657 49.1582C30.4737 50.4334 31.9518 53.1732 34.4281 52.6112C35.891 52.2789 35.9816 51.9685 35.1234 50.2141C34.2779 48.4842 33.9159 48.3347 32.5657 49.1582ZM26.9155 57.4569C25.6845 58.4661 26.2184 60.3894 27.8898 60.9627C28.6399 61.2199 29.5448 60.5789 29.9017 59.5384C30.5733 57.5804 28.5147 56.1448 26.9155 57.4569ZM21.9277 67.3752C21.4391 68.7997 21.7577 69.4799 22.9958 69.6551C23.9661 69.7912 24.9756 69.2769 25.2384 68.5107C25.5012 67.7446 25.0199 66.7189 24.1703 66.2309C23.0853 65.6092 22.4163 65.9507 21.9277 67.3752ZM17.5304 76.0868C15.7815 76.9416 15.8872 79.0467 17.7099 79.6719C18.9708 80.1044 19.8181 79.6899 20.2506 78.429C20.8758 76.6063 19.2787 75.2307 17.5304 76.0868ZM12.3872 86.9391C11.0134 88.5802 12.7766 90.9357 14.8047 90.1671C16.6433 89.4699 16.6637 86.7134 14.8353 86.0863C14.0937 85.8319 12.9927 86.2154 12.3872 86.9391ZM8.70773 96.6708C8.21912 98.0953 8.53768 98.7755 9.77582 98.9506C10.7461 99.0868 11.7556 98.5725 12.0184 97.8063C12.2812 97.0402 11.7999 96.0145 10.9503 95.5265C9.86531 94.9048 9.19635 95.2462 8.70773 96.6708ZM5.93622 106.292C4.7052 107.301 5.23908 109.224 6.91049 109.798C7.6606 110.055 8.56554 109.414 8.92244 108.374C9.59404 106.415 7.53544 104.98 5.93622 106.292ZM4.11061 116.238C3.622 117.662 3.94056 118.342 5.1787 118.518C6.149 118.654 7.15847 118.139 7.42127 117.373C7.68408 116.607 7.2028 115.582 6.35319 115.093C5.26819 114.472 4.59923 114.813 4.11061 116.238ZM2.285 126.183C1.05398 127.193 1.58786 129.116 3.25928 129.689C4.00938 129.946 4.91433 129.305 5.27122 128.265C5.94283 126.307 3.88422 124.871 2.285 126.183ZM1.84649 137.288C0.0479984 138.167 0.176564 140.261 2.06837 140.91C3.39075 141.363 4.10609 141.035 4.26456 139.901C4.52418 138.044 3.20736 136.621 1.84649 137.288ZM136.14 185.873C135.569 186.341 135.394 187.323 135.752 188.053C136.587 189.76 139.931 189.668 139.946 187.937C139.963 186.176 137.44 184.807 136.14 185.873ZM146.545 189.442C145.974 189.91 145.799 190.892 146.157 191.622C146.992 193.329 150.336 193.237 150.351 191.506C150.367 189.745 147.845 188.376 146.545 189.442ZM154.911 194.392C154.423 195.817 154.741 196.497 155.979 196.672C156.951 196.809 157.959 196.294 158.222 195.528C158.485 194.762 158.004 193.736 157.154 193.248C156.069 192.626 155.4 192.968 154.911 194.392ZM127.953 185.146C126.722 186.155 127.256 188.078 128.927 188.651C129.677 188.909 130.582 188.268 130.939 187.227C131.611 185.269 129.552 183.834 127.953 185.146ZM162.265 198.607C160.997 200.122 162.662 202.724 164.364 201.891C165.751 201.212 165.755 198.112 164.37 197.637C163.817 197.447 162.87 197.883 162.265 198.607ZM117.755 184.546C117.328 184.897 117.137 185.878 117.33 186.728C117.757 188.609 121.281 188.697 121.298 186.826C121.312 185.243 118.843 183.654 117.755 184.546ZM0.610484 148.603C0.473981 149.574 0.988608 150.583 1.75479 150.846C2.52097 151.108 3.54628 150.628 4.03466 149.777C4.65631 148.692 4.31489 148.024 2.89035 147.535C1.46582 147.046 0.78567 147.365 0.610484 148.603ZM169.428 206.499C169.001 206.85 168.81 207.831 169.003 208.68C169.43 210.561 172.954 210.65 172.971 208.779C172.985 207.196 170.516 205.607 169.428 206.499ZM106.612 187.263C106.147 188.617 106.546 189.432 107.9 189.896C109.253 190.361 109.938 190.026 110.109 188.816C110.48 186.188 107.443 184.839 106.612 187.263ZM173.656 214.301C173.52 215.272 174.034 216.281 174.8 216.544C175.567 216.806 176.592 216.326 177.08 215.475C177.702 214.39 177.36 213.722 175.936 213.233C174.511 212.744 173.831 213.063 173.656 214.301ZM97.6593 189.291C97.5228 190.262 98.0374 191.271 98.8036 191.534C99.5698 191.797 100.595 191.316 101.083 190.466C101.705 189.381 101.364 188.712 99.9392 188.223C98.5146 187.734 97.8345 188.053 97.6593 189.291ZM0.29103 158.195C-0.173253 159.549 0.225726 160.364 1.57931 160.829C2.9329 161.293 3.61762 160.958 3.78845 159.748C4.15912 157.12 1.12259 155.771 0.29103 158.195ZM177.06 222.869C176.924 223.84 177.438 224.849 178.205 225.112C178.971 225.374 179.996 224.894 180.485 224.043C181.106 222.958 180.765 222.29 179.34 221.801C177.916 221.312 177.236 221.631 177.06 222.869ZM88.6235 192.447C86.8746 193.302 86.9803 195.407 88.803 196.032C90.0639 196.465 90.9112 196.05 91.3437 194.79C91.9689 192.967 90.3718 191.591 88.6235 192.447ZM0.742883 169.792C0.606381 170.763 1.12101 171.772 1.88719 172.035C2.65337 172.298 3.67868 171.817 4.16706 170.967C4.78871 169.882 4.44728 169.213 3.02275 168.724C1.59822 168.235 0.918069 168.554 0.742883 169.792ZM180.024 231.176C178.225 232.055 178.354 234.149 180.245 234.798C181.568 235.251 182.283 234.923 182.442 233.789C182.701 231.931 181.384 230.509 180.024 231.176ZM78.1947 197.68C76.9946 198.664 77.4834 200.607 79.0678 201.151C80.4516 201.625 82.4793 199.733 81.8855 198.521C81.3066 197.336 79.1993 196.856 78.1947 197.68ZM2.76018 177.774C0.961689 178.654 1.09026 180.748 2.98206 181.396C4.30444 181.85 5.01978 181.521 5.17825 180.387C5.43787 178.53 4.12105 177.108 2.76018 177.774ZM69.2602 204.729C67.7666 206.513 69.1053 209.132 71.0298 208.191C72.6559 207.395 72.8749 204.313 71.3426 203.787C70.7892 203.597 69.8529 204.021 69.2602 204.729ZM179.99 242.265C178.29 243.096 178.243 245.74 179.918 246.315C181.664 246.913 183.251 244.64 182.241 242.985C181.641 242.002 180.968 241.786 179.99 242.265ZM3.30431 187.41C2.0213 188.944 3.03901 191.454 4.78492 191.058C6.6053 190.645 7.09488 188.417 5.63339 187.194C4.90155 186.582 3.922 186.673 3.30431 187.41ZM59.882 212.542C59.3933 213.967 59.7119 214.647 60.95 214.822C61.9213 214.959 62.9298 214.444 63.1926 213.678C63.4554 212.912 62.9751 211.886 62.1245 211.398C61.0395 210.776 60.3706 211.118 59.882 212.542ZM176.701 252.611C175.47 253.621 176.004 255.544 177.675 256.117C178.425 256.374 179.33 255.733 179.687 254.693C180.359 252.735 178.3 251.299 176.701 252.611ZM4.81429 195.802C4.24352 196.27 4.06866 197.252 4.426 197.982C5.26124 199.689 8.60501 199.597 8.62067 197.866C8.6369 196.105 6.11442 194.736 4.81429 195.802ZM53.6366 219.457C52.1431 221.241 53.4817 223.86 55.4063 222.918C57.0324 222.123 57.2514 219.04 55.719 218.515C55.1657 218.325 54.2294 218.749 53.6366 219.457ZM172.471 261.779C171.297 262.741 172.473 266.155 173.87 265.838C174.429 265.712 175.17 264.782 175.516 263.772C176.181 261.833 174.081 260.459 172.471 261.779ZM7.51968 206.303C6.13545 207.438 7.49234 209.782 9.49065 209.711C10.452 209.676 11.1252 208.958 11.0908 208.005C11.0228 206.101 8.96283 205.119 7.51968 206.303ZM46.9476 227.135C45.7166 228.144 46.2505 230.068 47.9219 230.641C48.672 230.898 49.577 230.257 49.9339 229.217C50.6055 227.259 48.5469 225.823 46.9476 227.135ZM168.938 269.661C167.139 270.54 167.268 272.634 169.159 273.283C170.482 273.736 171.197 273.408 171.356 272.274C171.615 270.416 170.298 268.994 168.938 269.661ZM10.6204 216.437C8.87145 217.292 8.97715 219.397 10.7999 220.022C12.0608 220.455 12.9081 220.04 13.3406 218.779C13.9658 216.957 12.3687 215.581 10.6204 216.437ZM14.9973 225.317C13.1988 226.196 13.3274 228.29 15.2192 228.939C16.5415 229.392 17.2569 229.063 17.4154 227.929C17.675 226.072 16.3582 224.65 14.9973 225.317ZM162.849 276.342C161.116 276.735 160.761 279.917 162.387 280.474C163.772 280.949 165.671 278.499 164.993 277.112C164.681 276.476 163.744 276.138 162.849 276.342ZM41.0377 236.66C40.5734 238.014 40.9723 238.829 42.3259 239.293C43.6795 239.758 44.3642 239.423 44.5351 238.213C44.9057 235.585 41.8692 234.236 41.0377 236.66ZM17.9566 236.143C17.4924 237.497 17.8913 238.313 19.2449 238.777C21.6693 239.608 22.4679 236.383 20.1658 235.063C19.1056 234.455 18.4209 234.79 17.9566 236.143ZM35.8777 245.539C35.3891 246.964 35.7077 247.644 36.9458 247.819C37.917 247.956 38.9256 247.441 39.1884 246.675C39.4512 245.909 38.9708 244.883 38.1203 244.395C37.0353 243.773 36.3663 244.115 35.8777 245.539ZM153.432 285.585C153.062 288.213 156.098 289.562 156.93 287.137C157.394 285.784 156.995 284.968 155.641 284.504C154.288 284.04 153.603 284.375 153.432 285.585ZM23.9361 245.399C23.5093 245.75 23.3187 246.731 23.5115 247.58C23.9382 249.462 27.4622 249.55 27.4791 247.679C27.4935 246.096 25.0245 244.507 23.9361 245.399ZM31.7757 253.205C29.805 255.56 29.7416 257.178 31.5965 257.814C33.4912 258.464 36.1093 255.954 35.6496 253.928C35.2497 252.166 32.9973 251.745 31.7757 253.205ZM143.889 291.838C143.753 292.808 144.267 293.817 145.034 294.08C145.8 294.343 146.825 293.862 147.313 293.012C147.935 291.927 147.594 291.258 146.169 290.77C144.745 290.281 144.064 290.6 143.889 291.838ZM36.5062 261.238C34.7077 262.117 34.8362 264.211 36.728 264.86C38.0504 265.314 38.7658 264.985 38.9242 263.851C39.1838 261.994 37.867 260.572 36.5062 261.238ZM134.248 295.738C132.755 297.522 134.094 300.141 136.018 299.199C137.644 298.404 137.863 295.321 136.331 294.795C135.777 294.606 134.841 295.03 134.248 295.738ZM28.8529 261.886C28.4261 262.237 28.2354 263.218 28.4283 264.068C28.855 265.949 32.379 266.037 32.3959 264.166C32.4103 262.583 29.9412 260.994 28.8529 261.886ZM42.7653 269.645C41.3535 271.332 42.3519 273.297 44.3859 272.835C46.1182 272.442 46.4737 269.26 44.8477 268.702C44.2943 268.513 43.3581 268.937 42.7653 269.645ZM125.547 298.497C125.058 299.921 125.376 300.601 126.615 300.777C127.586 300.913 128.594 300.398 128.857 299.632C129.12 298.866 128.64 297.841 127.789 297.352C126.704 296.731 126.035 297.072 125.547 298.497ZM52.0698 276.157C50.2125 276.196 49.6326 278.448 51.1521 279.72C51.884 280.333 52.8635 280.241 53.4812 279.504C54.7428 277.996 53.9515 276.117 52.0698 276.157ZM116.182 299.074C114.899 300.607 115.916 303.117 117.662 302.721C119.483 302.309 119.972 300.08 118.511 298.857C117.779 298.245 116.799 298.336 116.182 299.074ZM25.6988 270.592C24.4678 271.601 25.0017 273.524 26.6731 274.098C27.4232 274.355 28.3281 273.714 28.685 272.673C29.3566 270.715 27.298 269.28 25.6988 270.592ZM59.0981 281.674C57.2996 282.553 57.4282 284.647 59.32 285.296C60.6424 285.749 61.3577 285.42 61.5162 284.287C61.7758 282.429 60.459 281.007 59.0981 281.674ZM106.989 299.043C105.85 300.404 107.537 302.45 109.441 302.019C110.957 301.674 110.82 298.731 109.263 298.197C108.594 297.968 107.57 298.348 106.989 299.043ZM68.2224 287.891C66.7288 289.675 68.0675 292.294 69.9921 291.353C71.6181 290.557 71.8372 287.475 70.3048 286.949C69.7514 286.759 68.8152 287.183 68.2224 287.891ZM97.8272 298.015C97.2185 298.742 97.3017 299.723 98.0238 300.327C99.6313 301.672 100.768 301.108 100.693 299.003C100.616 296.886 99.1853 296.392 97.8272 298.015ZM76.5328 291.612C74.9031 293.558 76.1914 296.192 78.2748 295.173C79.4727 294.587 79.5816 293.958 78.7706 292.3C77.8002 290.318 77.6529 290.273 76.5328 291.612ZM86.7514 295.854C85.4675 296.906 86.6656 299.355 88.2845 298.988C88.9702 298.832 89.741 298.092 89.9983 297.342C90.5446 295.749 88.1929 294.672 86.7514 295.854ZM23.6972 282.592C22.4662 283.601 23.0001 285.524 24.6715 286.097C25.4216 286.355 26.3266 285.714 26.6835 284.673C27.3551 282.715 25.2965 281.28 23.6972 282.592ZM22.3446 292.7C21.1445 293.683 21.6333 295.627 23.2177 296.171C24.6015 296.645 26.6292 294.753 26.0354 293.541C25.4565 292.356 23.3492 291.876 22.3446 292.7ZM23.4672 304.292C22.1992 305.806 23.8641 308.408 25.5664 307.576C26.9536 306.897 26.9577 303.797 25.5729 303.322C25.0196 303.132 24.0728 303.568 23.4672 304.292ZM24.6932 313.592C23.4622 314.601 23.9961 316.524 25.6675 317.098C26.4176 317.355 27.3226 316.714 27.6795 315.673C28.3511 313.715 26.2925 312.28 24.6932 313.592ZM25.9662 324.336C25.83 325.306 26.3443 326.316 27.1105 326.579C27.8767 326.841 28.9023 326.36 29.3903 325.51C30.012 324.425 29.6706 323.757 28.246 323.268C26.8215 322.779 26.1414 323.098 25.9662 324.336ZM30.1997 332.021C28.4012 332.9 28.5298 334.994 30.4216 335.643C31.744 336.097 32.4593 335.768 32.6178 334.634C32.8774 332.777 31.5606 331.355 30.1997 332.021ZM297.528 429.975C296.117 431.662 297.115 433.627 299.149 433.165C300.881 432.772 301.237 429.59 299.611 429.033C299.057 428.843 298.121 429.267 297.528 429.975ZM285.43 426.069C284.134 427.132 285.359 429.756 287.12 429.693C289.539 429.606 290.205 426.864 287.991 426.104C286.981 425.758 285.829 425.742 285.43 426.069ZM307.948 434.007C306.717 435.016 307.251 436.939 308.922 437.512C309.672 437.77 310.577 437.129 310.934 436.088C311.606 434.13 309.547 432.695 307.948 434.007ZM274.488 423.621C273.917 424.089 273.742 425.07 274.099 425.801C274.935 427.508 278.278 427.416 278.294 425.684C278.31 423.923 275.788 422.555 274.488 423.621ZM31.5179 342.002C31.3737 343.023 31.8882 344.075 32.662 344.341C34.689 345.036 35.3396 342.187 33.4056 341.078C32.2253 340.402 31.7082 340.655 31.5179 342.002ZM317.625 439.532C316.24 440.668 317.597 443.012 319.596 442.94C320.557 442.905 321.23 442.188 321.196 441.234C321.128 439.33 319.068 438.348 317.625 439.532ZM264.557 423.352C264.069 424.777 264.387 425.457 265.626 425.632C266.596 425.769 267.605 425.254 267.868 424.488C268.131 423.722 267.65 422.696 266.8 422.208C265.715 421.587 265.046 421.928 264.557 423.352ZM326.639 445.781C326.175 447.134 326.51 447.819 327.72 447.99C330.348 448.361 331.697 445.324 329.272 444.493C327.919 444.028 327.103 444.427 326.639 445.781ZM255.54 420.942C253.741 421.821 253.87 423.915 255.761 424.564C257.084 425.018 257.799 424.689 257.958 423.555C258.217 421.698 256.9 420.276 255.54 420.942ZM336.238 450.736C334.44 451.616 334.569 453.71 336.46 454.358C337.783 454.812 338.498 454.483 338.657 453.349C338.916 451.492 337.599 450.07 336.238 450.736ZM245.76 421.134C244.529 422.143 245.063 424.066 246.735 424.64C247.485 424.897 248.39 424.256 248.747 423.215C249.418 421.257 247.36 419.822 245.76 421.134ZM37.3053 351.374C35.5068 352.253 35.6354 354.347 37.5272 354.995C38.8496 355.449 39.5649 355.12 39.7234 353.986C39.983 352.129 38.6662 350.707 37.3053 351.374ZM343.454 457.44C341.655 458.319 341.784 460.413 343.676 461.062C344.998 461.516 345.713 461.187 345.872 460.053C346.131 458.196 344.815 456.774 343.454 457.44ZM233.695 421.86C232.427 423.374 234.092 425.976 235.794 425.143C237.182 424.465 237.186 421.364 235.801 420.889C235.248 420.699 234.301 421.136 233.695 421.86ZM350.269 463.659C349.041 464.408 348.927 464.997 349.748 466.343C351.328 468.934 354.134 467.386 352.8 464.66C351.976 462.975 351.62 462.835 350.269 463.659ZM41.3629 360.54C40.1318 361.549 40.6657 363.472 42.3371 364.046C43.0872 364.303 43.9922 363.662 44.3491 362.621C45.0207 360.663 42.9621 359.228 41.3629 360.54ZM222.323 422.235C220.525 423.114 220.653 425.208 222.545 425.857C223.867 426.311 224.583 425.982 224.741 424.848C225.001 422.991 223.684 421.569 222.323 422.235ZM356.961 473.471C355.601 475.097 357.256 477.662 359.087 476.766C360.787 475.934 360.834 473.291 359.159 472.716C358.49 472.487 357.502 472.826 356.961 473.471ZM211.242 423.72C209.443 424.599 209.572 426.693 211.464 427.342C212.786 427.796 213.502 427.467 213.66 426.333C213.92 424.476 212.603 423.054 211.242 423.72ZM46.3616 369.113C45.0206 369.932 44.9699 370.338 46.0905 371.275C47.7086 372.63 50.253 371.687 49.844 369.884C49.4553 368.172 48.3174 367.921 46.3616 369.113ZM199.331 426.088C199.195 427.058 199.71 428.068 200.476 428.331C201.242 428.593 202.268 428.112 202.756 427.263C203.377 426.178 203.036 425.509 201.611 425.02C200.187 424.531 199.507 424.85 199.331 426.088ZM52.001 376.269C50.6103 377.932 52.3065 380.455 54.1955 379.531C55.2626 379.009 55.4945 378.379 55.0499 377.206C54.261 375.124 53.2262 374.806 52.001 376.269ZM364.131 482.879C362.9 483.888 363.434 485.811 365.105 486.385C365.855 486.642 366.76 486.001 367.117 484.96C367.789 483.002 365.73 481.567 364.131 482.879ZM191.186 425.364C189.328 425.404 188.748 427.655 190.268 428.927C191 429.54 191.979 429.449 192.597 428.711C193.859 427.203 193.067 425.324 191.186 425.364ZM60.0235 385.181C59.0453 385.66 58.8027 386.324 59.2105 387.401C59.8974 389.213 62.6658 389.356 63.2648 387.61C63.8394 385.935 61.7232 384.35 60.0235 385.181ZM178.961 427.365C177.549 429.052 178.548 431.018 180.582 430.555C182.314 430.162 182.67 426.98 181.044 426.423C180.49 426.233 179.554 426.657 178.961 427.365ZM369.073 493.065C368.502 493.534 368.328 494.515 368.685 495.245C369.52 496.953 372.864 496.861 372.88 495.129C372.896 493.368 370.373 492 369.073 493.065ZM68.8605 393.167C67.1282 393.561 66.7726 396.742 68.3986 397.3C69.7835 397.775 71.6832 395.325 71.0045 393.938C70.6932 393.301 69.7559 392.964 68.8605 393.167ZM167.235 427.608C165.967 429.122 167.632 431.724 169.334 430.891C170.721 430.213 170.726 427.112 169.341 426.637C168.787 426.448 167.841 426.884 167.235 427.608ZM76.3595 400.123C74.9753 401.258 76.3322 403.602 78.3305 403.53C79.2918 403.496 79.965 402.778 79.9306 401.824C79.8627 399.92 77.8027 398.939 76.3595 400.123ZM156.502 428.119C155.09 429.806 156.088 431.771 158.122 431.309C159.854 430.916 160.21 427.734 158.584 427.177C158.031 426.987 157.094 427.411 156.502 428.119ZM373.09 502.445C371.822 503.96 373.487 506.562 375.189 505.729C376.577 505.05 376.581 501.95 375.196 501.475C374.643 501.285 373.696 501.721 373.09 502.445ZM85.2172 405.866C83.4187 406.745 83.5473 408.839 85.4391 409.488C86.7615 409.942 87.4768 409.613 87.6353 408.479C87.8949 406.622 86.5781 405.2 85.2172 405.866ZM144.437 426.645C143.053 427.78 144.41 430.124 146.408 430.053C147.369 430.018 148.043 429.3 148.008 428.347C147.94 426.443 145.88 425.461 144.437 426.645ZM94.459 412.463C93.1223 413.558 95.4996 416.632 97.085 415.856C97.8333 415.49 98.3176 414.63 98.1626 413.944C97.8214 412.442 95.5786 411.544 94.459 412.463ZM133.059 425.914C132.516 426.36 132.37 427.336 132.736 428.084C133.512 429.67 137.275 428.703 136.892 427.017C136.572 425.605 134.25 424.937 133.059 425.914ZM104.585 418.17C104.097 419.594 104.415 420.274 105.653 420.45C106.624 420.586 107.633 420.071 107.896 419.305C108.159 418.539 107.678 417.514 106.828 417.025C105.743 416.404 105.074 416.745 104.585 418.17ZM113.098 421.09C112.61 422.514 112.928 423.194 114.166 423.37C115.138 423.506 116.146 422.991 116.409 422.225C116.672 421.459 116.191 420.434 115.341 419.945C114.256 419.324 113.587 419.665 113.098 421.09ZM124.449 424.983C123.961 426.408 124.279 427.088 125.517 427.263C126.488 427.399 127.497 426.885 127.76 426.119C128.023 425.352 127.541 424.327 126.692 423.839C125.607 423.217 124.938 423.558 124.449 424.983ZM376.518 510.985C375.024 512.769 376.363 515.388 378.288 514.447C379.914 513.651 380.133 510.568 378.6 510.043C378.047 509.853 377.111 510.277 376.518 510.985ZM379.581 521.634C377.782 522.513 377.911 524.607 379.803 525.256C381.125 525.709 381.84 525.381 381.999 524.247C382.258 522.39 380.942 520.967 379.581 521.634ZM381.097 532.043C379.866 533.052 380.4 534.976 382.072 535.549C382.822 535.806 383.727 535.165 384.084 534.125C384.755 532.167 382.697 530.731 381.097 532.043ZM382.583 543.124C381.351 544.134 381.885 546.057 383.557 546.63C384.307 546.888 385.212 546.246 385.569 545.206C386.24 543.248 384.182 541.812 382.583 543.124ZM383.676 554.025C382.049 554.394 381.596 557.587 383.097 558.102C383.57 558.264 384.64 557.981 385.474 557.472C387.435 556.275 385.987 553.5 383.676 554.025ZM384.278 563.418C382.532 564.272 382.518 566.51 384.256 566.756C385.226 566.892 386.226 566.407 386.476 565.678C386.988 564.184 385.609 562.767 384.278 563.418ZM382.245 572.337C381.818 572.688 381.628 573.669 381.821 574.519C382.247 576.4 385.771 576.488 385.788 574.617C385.803 573.034 383.334 571.445 382.245 572.337ZM381.155 582.731C380.691 584.084 381.09 584.9 382.443 585.364C383.797 585.829 384.482 585.494 384.653 584.284C385.023 581.656 381.987 580.307 381.155 582.731ZM380.103 591.962C379.615 593.387 379.933 594.067 381.171 594.242C382.142 594.378 383.151 593.864 383.414 593.098C383.677 592.331 383.195 591.306 382.346 590.818C381.261 590.196 380.592 590.537 380.103 591.962ZM380.49 599.121C378.691 600 378.82 602.094 380.711 602.742C382.034 603.196 382.749 602.867 382.908 601.733C383.167 599.876 381.85 598.454 380.49 599.121ZM377.559 609.661C376.066 611.445 377.404 614.064 379.329 613.122C380.955 612.327 381.174 609.244 379.642 608.719C379.088 608.529 378.152 608.953 377.559 609.661ZM374.432 619.499C373.325 620.406 375.298 623.43 376.779 623.094C378.809 622.633 379.014 620.132 377.074 619.467C376.064 619.121 374.875 619.135 374.432 619.499ZM372.341 627.958C370.847 629.742 372.186 632.361 374.11 631.419C375.736 630.624 375.955 627.541 374.423 627.015C373.87 626.826 372.933 627.25 372.341 627.958ZM370.349 637.93C368.551 638.809 368.679 640.903 370.571 641.552C371.894 642.006 372.609 641.677 372.767 640.543C373.027 638.686 371.71 637.264 370.349 637.93ZM366.754 648.348C365.005 649.203 365.111 651.308 366.933 651.933C368.194 652.366 369.042 651.951 369.474 650.69C370.099 648.868 368.502 647.492 366.754 648.348ZM361.797 660.743C361.308 662.168 361.627 662.848 362.865 663.023C363.835 663.159 364.845 662.645 365.108 661.879C365.371 661.113 364.889 660.087 364.04 659.599C362.955 658.977 362.286 659.319 361.797 660.743ZM357.219 671.595C357.082 672.565 357.597 673.575 358.363 673.838C359.129 674.1 360.155 673.619 360.643 672.769C361.264 671.684 360.923 671.016 359.499 670.527C358.074 670.038 357.394 670.357 357.219 671.595ZM353.81 679.24C352.426 680.375 353.783 682.719 355.781 682.647C356.742 682.612 357.415 681.895 357.381 680.941C357.313 679.037 355.253 678.056 353.81 679.24ZM349.05 690.201C347.819 691.21 348.353 693.134 350.024 693.707C350.774 693.964 351.679 693.323 352.036 692.283C352.708 690.325 350.649 688.889 349.05 690.201ZM344.497 699.149C342.764 699.542 342.409 702.724 344.035 703.282C345.42 703.757 347.319 701.306 346.641 699.919C346.329 699.283 345.392 698.945 344.497 699.149ZM339.25 707.984C338.762 709.408 339.08 710.088 340.319 710.264C341.289 710.4 342.298 709.885 342.561 709.119C342.824 708.353 342.343 707.327 341.493 706.839C340.408 706.218 339.739 706.559 339.25 707.984ZM335.178 715.749C333.429 716.604 333.534 718.709 335.357 719.335C336.618 719.767 337.465 719.353 337.898 718.092C338.523 716.269 336.926 714.893 335.178 715.749Z" fill="#003E17"/>
</svg>
